G04 #@! TF.FileFunction,Copper,L1,Top,Signal*
%FSLAX46Y46*%
G04 Gerber Fmt 4.6, Leading zero omitted, Abs format (unit mm)*
G04 Created by KiCad (PCBNEW 4.0.4-stable) date 09/05/16 00:54:51*
%MOMM*%
%LPD*%
G01*
G04 APERTURE LIST*
%ADD10C,0.100000*%
%ADD11C,0.150000*%
%ADD12C,0.250000*%
%ADD13R,5.000000X3.000000*%
%ADD14C,2.000000*%
%ADD15C,1.998980*%
%ADD16C,2.499360*%
%ADD17C,2.740000*%
%ADD18C,2.240000*%
%ADD19R,2.800000X3.400000*%
%ADD20R,3.400000X2.800000*%
%ADD21R,1.800000X1.800000*%
%ADD22C,1.800000*%
%ADD23C,1.699260*%
%ADD24R,1.699260X1.699260*%
%ADD25C,2.540000*%
%ADD26C,1.000000*%
%ADD27C,0.750000*%
G04 APERTURE END LIST*
D10*
D11*
X124700000Y-65660000D02*
X124700000Y-65910000D01*
X162700000Y-65660000D02*
X124700000Y-65660000D01*
X162700000Y-65910000D02*
X162700000Y-65660000D01*
X162700000Y-142660000D02*
X162700000Y-142410000D01*
X124700000Y-142660000D02*
X162700000Y-142660000D01*
X124700000Y-142410000D02*
X124700000Y-142660000D01*
X117950000Y-72660000D02*
X117950000Y-135660000D01*
X169450000Y-135660000D02*
X169450000Y-72660000D01*
X169450000Y-135660000D02*
G75*
G03X162700000Y-142410000I0J-6750000D01*
G01*
X124700000Y-142410000D02*
G75*
G03X117950000Y-135660000I-6750000J0D01*
G01*
X117950000Y-72660000D02*
G75*
G03X124700000Y-65910000I0J6750000D01*
G01*
X162700000Y-65910000D02*
G75*
G03X169450000Y-72660000I6750000J0D01*
G01*
D12*
X168840476Y-126055001D02*
X167590476Y-126055001D01*
X168840476Y-125519287D02*
X168185714Y-125519287D01*
X168066667Y-125578810D01*
X168007143Y-125697858D01*
X168007143Y-125876430D01*
X168066667Y-125995477D01*
X168126190Y-126055001D01*
X168007143Y-125102620D02*
X168007143Y-124626430D01*
X167590476Y-124924049D02*
X168661905Y-124924049D01*
X168780952Y-124864525D01*
X168840476Y-124745478D01*
X168840476Y-124626430D01*
X168007143Y-124388334D02*
X168007143Y-123912144D01*
X167590476Y-124209763D02*
X168661905Y-124209763D01*
X168780952Y-124150239D01*
X168840476Y-124031192D01*
X168840476Y-123912144D01*
X168007143Y-123495477D02*
X169257143Y-123495477D01*
X168066667Y-123495477D02*
X168007143Y-123376429D01*
X168007143Y-123138334D01*
X168066667Y-123019286D01*
X168126190Y-122959763D01*
X168245238Y-122900239D01*
X168602381Y-122900239D01*
X168721429Y-122959763D01*
X168780952Y-123019286D01*
X168840476Y-123138334D01*
X168840476Y-123376429D01*
X168780952Y-123495477D01*
X168721429Y-122364525D02*
X168780952Y-122305001D01*
X168840476Y-122364525D01*
X168780952Y-122424049D01*
X168721429Y-122364525D01*
X168840476Y-122364525D01*
X168066667Y-122364525D02*
X168126190Y-122305001D01*
X168185714Y-122364525D01*
X168126190Y-122424049D01*
X168066667Y-122364525D01*
X168185714Y-122364525D01*
X167530952Y-120876430D02*
X169138095Y-121947858D01*
X167530952Y-119566906D02*
X169138095Y-120638334D01*
X168007143Y-118614525D02*
X169019048Y-118614525D01*
X169138095Y-118674048D01*
X169197619Y-118733572D01*
X169257143Y-118852620D01*
X169257143Y-119031191D01*
X169197619Y-119150239D01*
X168780952Y-118614525D02*
X168840476Y-118733572D01*
X168840476Y-118971668D01*
X168780952Y-119090715D01*
X168721429Y-119150239D01*
X168602381Y-119209763D01*
X168245238Y-119209763D01*
X168126190Y-119150239D01*
X168066667Y-119090715D01*
X168007143Y-118971668D01*
X168007143Y-118733572D01*
X168066667Y-118614525D01*
X168840476Y-118019287D02*
X168007143Y-118019287D01*
X167590476Y-118019287D02*
X167650000Y-118078811D01*
X167709524Y-118019287D01*
X167650000Y-117959763D01*
X167590476Y-118019287D01*
X167709524Y-118019287D01*
X168007143Y-117602620D02*
X168007143Y-117126430D01*
X167590476Y-117424049D02*
X168661905Y-117424049D01*
X168780952Y-117364525D01*
X168840476Y-117245478D01*
X168840476Y-117126430D01*
X168840476Y-116709763D02*
X167590476Y-116709763D01*
X168840476Y-116174049D02*
X168185714Y-116174049D01*
X168066667Y-116233572D01*
X168007143Y-116352620D01*
X168007143Y-116531192D01*
X168066667Y-116650239D01*
X168126190Y-116709763D01*
X168007143Y-115043097D02*
X168840476Y-115043097D01*
X168007143Y-115578811D02*
X168661905Y-115578811D01*
X168780952Y-115519287D01*
X168840476Y-115400240D01*
X168840476Y-115221668D01*
X168780952Y-115102620D01*
X168721429Y-115043097D01*
X168840476Y-114447859D02*
X167590476Y-114447859D01*
X168066667Y-114447859D02*
X168007143Y-114328811D01*
X168007143Y-114090716D01*
X168066667Y-113971668D01*
X168126190Y-113912145D01*
X168245238Y-113852621D01*
X168602381Y-113852621D01*
X168721429Y-113912145D01*
X168780952Y-113971668D01*
X168840476Y-114090716D01*
X168840476Y-114328811D01*
X168780952Y-114447859D01*
X168721429Y-113316907D02*
X168780952Y-113257383D01*
X168840476Y-113316907D01*
X168780952Y-113376431D01*
X168721429Y-113316907D01*
X168840476Y-113316907D01*
X168780952Y-112185955D02*
X168840476Y-112305002D01*
X168840476Y-112543098D01*
X168780952Y-112662145D01*
X168721429Y-112721669D01*
X168602381Y-112781193D01*
X168245238Y-112781193D01*
X168126190Y-112721669D01*
X168066667Y-112662145D01*
X168007143Y-112543098D01*
X168007143Y-112305002D01*
X168066667Y-112185955D01*
X168840476Y-111471669D02*
X168780952Y-111590716D01*
X168721429Y-111650240D01*
X168602381Y-111709764D01*
X168245238Y-111709764D01*
X168126190Y-111650240D01*
X168066667Y-111590716D01*
X168007143Y-111471669D01*
X168007143Y-111293097D01*
X168066667Y-111174049D01*
X168126190Y-111114526D01*
X168245238Y-111055002D01*
X168602381Y-111055002D01*
X168721429Y-111114526D01*
X168780952Y-111174049D01*
X168840476Y-111293097D01*
X168840476Y-111471669D01*
X168840476Y-110519288D02*
X168007143Y-110519288D01*
X168126190Y-110519288D02*
X168066667Y-110459764D01*
X168007143Y-110340717D01*
X168007143Y-110162145D01*
X168066667Y-110043097D01*
X168185714Y-109983574D01*
X168840476Y-109983574D01*
X168185714Y-109983574D02*
X168066667Y-109924050D01*
X168007143Y-109805002D01*
X168007143Y-109626431D01*
X168066667Y-109507383D01*
X168185714Y-109447859D01*
X168840476Y-109447859D01*
X167530952Y-107959764D02*
X169138095Y-109031192D01*
X168007143Y-107007383D02*
X168840476Y-107007383D01*
X167530952Y-107305002D02*
X168423810Y-107602621D01*
X168423810Y-106828811D01*
X168840476Y-106471669D02*
X168007143Y-105816907D01*
X168007143Y-106471669D02*
X168840476Y-105816907D01*
X167590476Y-104745478D02*
X167590476Y-105340716D01*
X168185714Y-105400240D01*
X168126190Y-105340716D01*
X168066667Y-105221668D01*
X168066667Y-104924049D01*
X168126190Y-104805002D01*
X168185714Y-104745478D01*
X168304762Y-104685954D01*
X168602381Y-104685954D01*
X168721429Y-104745478D01*
X168780952Y-104805002D01*
X168840476Y-104924049D01*
X168840476Y-105221668D01*
X168780952Y-105340716D01*
X168721429Y-105400240D01*
X168840476Y-103614526D02*
X167590476Y-103614526D01*
X168780952Y-103614526D02*
X168840476Y-103733573D01*
X168840476Y-103971669D01*
X168780952Y-104090716D01*
X168721429Y-104150240D01*
X168602381Y-104209764D01*
X168245238Y-104209764D01*
X168126190Y-104150240D01*
X168066667Y-104090716D01*
X168007143Y-103971669D01*
X168007143Y-103733573D01*
X168066667Y-103614526D01*
X168840476Y-103019288D02*
X168007143Y-103019288D01*
X168126190Y-103019288D02*
X168066667Y-102959764D01*
X168007143Y-102840717D01*
X168007143Y-102662145D01*
X168066667Y-102543097D01*
X168185714Y-102483574D01*
X168840476Y-102483574D01*
X168185714Y-102483574D02*
X168066667Y-102424050D01*
X168007143Y-102305002D01*
X168007143Y-102126431D01*
X168066667Y-102007383D01*
X168185714Y-101947859D01*
X168840476Y-101947859D01*
X167530952Y-100459764D02*
X169138095Y-101531192D01*
X168007143Y-99507383D02*
X169257143Y-99507383D01*
X168780952Y-99507383D02*
X168840476Y-99626430D01*
X168840476Y-99864526D01*
X168780952Y-99983573D01*
X168721429Y-100043097D01*
X168602381Y-100102621D01*
X168245238Y-100102621D01*
X168126190Y-100043097D01*
X168066667Y-99983573D01*
X168007143Y-99864526D01*
X168007143Y-99626430D01*
X168066667Y-99507383D01*
X168840476Y-98912145D02*
X168007143Y-98912145D01*
X168245238Y-98912145D02*
X168126190Y-98852621D01*
X168066667Y-98793097D01*
X168007143Y-98674050D01*
X168007143Y-98555002D01*
X168007143Y-98138335D02*
X169257143Y-98138335D01*
X168066667Y-98138335D02*
X168007143Y-98019287D01*
X168007143Y-97781192D01*
X168066667Y-97662144D01*
X168126190Y-97602621D01*
X168245238Y-97543097D01*
X168602381Y-97543097D01*
X168721429Y-97602621D01*
X168780952Y-97662144D01*
X168840476Y-97781192D01*
X168840476Y-98019287D01*
X168780952Y-98138335D01*
X168959524Y-97305002D02*
X168959524Y-96352621D01*
X168780952Y-96114526D02*
X168840476Y-95995478D01*
X168840476Y-95757383D01*
X168780952Y-95638335D01*
X168661905Y-95578811D01*
X168602381Y-95578811D01*
X168483333Y-95638335D01*
X168423810Y-95757383D01*
X168423810Y-95935954D01*
X168364286Y-96055002D01*
X168245238Y-96114526D01*
X168185714Y-96114526D01*
X168066667Y-96055002D01*
X168007143Y-95935954D01*
X168007143Y-95757383D01*
X168066667Y-95638335D01*
X168007143Y-95162145D02*
X168840476Y-94924049D01*
X168245238Y-94685954D01*
X168840476Y-94447859D01*
X168007143Y-94209764D01*
X168840476Y-93733573D02*
X168007143Y-93733573D01*
X168245238Y-93733573D02*
X168126190Y-93674049D01*
X168066667Y-93614525D01*
X168007143Y-93495478D01*
X168007143Y-93376430D01*
X168959524Y-93257382D02*
X168959524Y-92305001D01*
X168840476Y-92007382D02*
X168007143Y-92007382D01*
X168126190Y-92007382D02*
X168066667Y-91947858D01*
X168007143Y-91828811D01*
X168007143Y-91650239D01*
X168066667Y-91531191D01*
X168185714Y-91471668D01*
X168840476Y-91471668D01*
X168185714Y-91471668D02*
X168066667Y-91412144D01*
X168007143Y-91293096D01*
X168007143Y-91114525D01*
X168066667Y-90995477D01*
X168185714Y-90935953D01*
X168840476Y-90935953D01*
X168780952Y-89864524D02*
X168840476Y-89983572D01*
X168840476Y-90221667D01*
X168780952Y-90340715D01*
X168661905Y-90400239D01*
X168185714Y-90400239D01*
X168066667Y-90340715D01*
X168007143Y-90221667D01*
X168007143Y-89983572D01*
X168066667Y-89864524D01*
X168185714Y-89805001D01*
X168304762Y-89805001D01*
X168423810Y-90400239D01*
X168007143Y-89447857D02*
X168007143Y-88971667D01*
X167590476Y-89269286D02*
X168661905Y-89269286D01*
X168780952Y-89209762D01*
X168840476Y-89090715D01*
X168840476Y-88971667D01*
X168780952Y-88078809D02*
X168840476Y-88197857D01*
X168840476Y-88435952D01*
X168780952Y-88555000D01*
X168661905Y-88614524D01*
X168185714Y-88614524D01*
X168066667Y-88555000D01*
X168007143Y-88435952D01*
X168007143Y-88197857D01*
X168066667Y-88078809D01*
X168185714Y-88019286D01*
X168304762Y-88019286D01*
X168423810Y-88614524D01*
X168840476Y-87483571D02*
X168007143Y-87483571D01*
X168245238Y-87483571D02*
X168126190Y-87424047D01*
X168066667Y-87364523D01*
X168007143Y-87245476D01*
X168007143Y-87126428D01*
D13*
X137760000Y-127000000D03*
X149260000Y-127000000D03*
D14*
X125730000Y-114300000D03*
X125730000Y-124460000D03*
D15*
X160020000Y-109220000D03*
X160020000Y-119380000D03*
D16*
X157439360Y-134660640D03*
X159938720Y-139700000D03*
X154940000Y-139700000D03*
X129499360Y-134660640D03*
X131998720Y-139700000D03*
X127000000Y-139700000D03*
D17*
X129540000Y-67310000D03*
X129540000Y-72390000D03*
X134620000Y-72390000D03*
X134620000Y-67310000D03*
D18*
X132080000Y-69850000D03*
D17*
X152400000Y-67310000D03*
X152400000Y-72390000D03*
X157480000Y-72390000D03*
X157480000Y-67310000D03*
D18*
X154940000Y-69850000D03*
D19*
X148210000Y-138430000D03*
X143510000Y-138430000D03*
X138810000Y-138430000D03*
D20*
X140970000Y-74040000D03*
X140970000Y-78740000D03*
X140970000Y-83440000D03*
X146050000Y-74040000D03*
X146050000Y-78740000D03*
X146050000Y-83440000D03*
D21*
X134620000Y-114300000D03*
D22*
X129540000Y-114300000D03*
D21*
X130810000Y-119380000D03*
D22*
X130810000Y-124460000D03*
D21*
X144780000Y-109220000D03*
D22*
X152400000Y-109220000D03*
D21*
X154940000Y-116840000D03*
D22*
X154940000Y-121920000D03*
D23*
X121917460Y-109219480D03*
D24*
X121917460Y-119379480D03*
D23*
X165100520Y-101597460D03*
D24*
X154940520Y-101597460D03*
D25*
X134620000Y-88900000D03*
X134620000Y-109220000D03*
X127000000Y-104140000D03*
X127000000Y-83820000D03*
X139700000Y-88900000D03*
X139700000Y-109220000D03*
X121920000Y-104140000D03*
X121920000Y-83820000D03*
X165100000Y-96520000D03*
X144780000Y-96520000D03*
X165100000Y-91440000D03*
X144780000Y-91440000D03*
D26*
X129499360Y-137119360D02*
X129499360Y-134660640D01*
X131998720Y-139618720D02*
X129499360Y-137119360D01*
D27*
X131998720Y-139700000D02*
X131998720Y-139618720D01*
M02*
