G04 #@! TF.FileFunction,Legend,Bot*
%FSLAX46Y46*%
G04 Gerber Fmt 4.6, Leading zero omitted, Abs format (unit mm)*
G04 Created by KiCad (PCBNEW 4.0.4-stable) date 09/05/16 00:54:51*
%MOMM*%
%LPD*%
G01*
G04 APERTURE LIST*
%ADD10C,0.100000*%
%ADD11C,0.200000*%
%ADD12C,0.150000*%
G04 APERTURE END LIST*
D10*
D11*
X167950000Y-129160000D02*
G75*
G03X167950000Y-129160000I-3500000J0D01*
G01*
X126450000Y-129160000D02*
G75*
G03X126450000Y-129160000I-3500000J0D01*
G01*
X126450000Y-79160000D02*
G75*
G03X126450000Y-79160000I-3500000J0D01*
G01*
X167950000Y-79160000D02*
G75*
G03X167950000Y-79160000I-3500000J0D01*
G01*
D12*
X124700000Y-65660000D02*
X124700000Y-65910000D01*
X162700000Y-65660000D02*
X124700000Y-65660000D01*
X162700000Y-65910000D02*
X162700000Y-65660000D01*
X162700000Y-142660000D02*
X162700000Y-142410000D01*
X124700000Y-142660000D02*
X162700000Y-142660000D01*
X124700000Y-142410000D02*
X124700000Y-142660000D01*
X117950000Y-72660000D02*
X117950000Y-135660000D01*
X169450000Y-135660000D02*
X169450000Y-72660000D01*
X169450000Y-135660000D02*
G75*
G03X162700000Y-142410000I0J-6750000D01*
G01*
X124700000Y-142410000D02*
G75*
G03X117950000Y-135660000I-6750000J0D01*
G01*
X117950000Y-72660000D02*
G75*
G03X124700000Y-65910000I0J6750000D01*
G01*
X162700000Y-65910000D02*
G75*
G03X169450000Y-72660000I6750000J0D01*
G01*
X149225000Y-123825000D02*
X149225000Y-125095000D01*
X148590000Y-124460000D02*
X149860000Y-124460000D01*
X137160000Y-124460000D02*
X138430000Y-124460000D01*
D10*
X126680000Y-114300000D02*
G75*
G03X126680000Y-114300000I-950000J0D01*
G01*
X126680000Y-124460000D02*
G75*
G03X126680000Y-124460000I-950000J0D01*
G01*
X160969490Y-109220000D02*
G75*
G03X160969490Y-109220000I-949490J0D01*
G01*
X160969490Y-119380000D02*
G75*
G03X160969490Y-119380000I-949490J0D01*
G01*
X135840000Y-88900000D02*
G75*
G03X135840000Y-88900000I-1220000J0D01*
G01*
X135840000Y-109220000D02*
G75*
G03X135840000Y-109220000I-1220000J0D01*
G01*
X128220000Y-104140000D02*
G75*
G03X128220000Y-104140000I-1220000J0D01*
G01*
X128220000Y-83820000D02*
G75*
G03X128220000Y-83820000I-1220000J0D01*
G01*
X140920000Y-88900000D02*
G75*
G03X140920000Y-88900000I-1220000J0D01*
G01*
X140920000Y-109220000D02*
G75*
G03X140920000Y-109220000I-1220000J0D01*
G01*
X123140000Y-104140000D02*
G75*
G03X123140000Y-104140000I-1220000J0D01*
G01*
X123140000Y-83820000D02*
G75*
G03X123140000Y-83820000I-1220000J0D01*
G01*
X166320000Y-96520000D02*
G75*
G03X166320000Y-96520000I-1220000J0D01*
G01*
X146000000Y-96520000D02*
G75*
G03X146000000Y-96520000I-1220000J0D01*
G01*
X166320000Y-91440000D02*
G75*
G03X166320000Y-91440000I-1220000J0D01*
G01*
X146000000Y-91440000D02*
G75*
G03X146000000Y-91440000I-1220000J0D01*
G01*
M02*
