G04 #@! TF.FileFunction,Legend,Top*
%FSLAX46Y46*%
G04 Gerber Fmt 4.6, Leading zero omitted, Abs format (unit mm)*
G04 Created by KiCad (PCBNEW 4.0.4-stable) date 09/05/16 00:54:51*
%MOMM*%
%LPD*%
G01*
G04 APERTURE LIST*
%ADD10C,0.100000*%
%ADD11C,0.350000*%
%ADD12C,0.500000*%
%ADD13C,0.250000*%
%ADD14C,0.200000*%
%ADD15C,0.150000*%
%ADD16C,0.300000*%
G04 APERTURE END LIST*
D10*
D11*
X135128000Y-138430000D02*
X135128000Y-134620000D01*
X136906000Y-138430000D02*
X136398000Y-138938000D01*
X136906000Y-138430000D02*
X136398000Y-137922000D01*
X136906000Y-138430000D02*
X135128000Y-138430000D01*
X150114000Y-138430000D02*
X150622000Y-137922000D01*
X150114000Y-138430000D02*
X150622000Y-138938000D01*
X151892000Y-138430000D02*
X151892000Y-134620000D01*
X150114000Y-138430000D02*
X151892000Y-138430000D01*
D12*
X151765000Y-85090000D02*
X153035000Y-83820000D01*
X150495000Y-83820000D02*
X151765000Y-85090000D01*
X151765000Y-76200000D02*
X153035000Y-77470000D01*
X151765000Y-76200000D02*
X150495000Y-77470000D01*
X151765000Y-85090000D02*
X151765000Y-76200000D01*
D13*
X154046220Y-130312976D02*
X153703957Y-129717738D01*
X153331934Y-130312976D02*
X153488184Y-129062976D01*
X153964375Y-129062976D01*
X154075981Y-129122500D01*
X154128065Y-129182024D01*
X154172708Y-129301071D01*
X154150386Y-129479643D01*
X154075981Y-129598690D01*
X154009017Y-129658214D01*
X153882529Y-129717738D01*
X153406338Y-129717738D01*
X155065565Y-130253452D02*
X154939077Y-130312976D01*
X154700982Y-130312976D01*
X154589374Y-130253452D01*
X154544731Y-130134405D01*
X154604255Y-129658214D01*
X154678660Y-129539167D01*
X154805148Y-129479643D01*
X155043243Y-129479643D01*
X155154851Y-129539167D01*
X155199493Y-129658214D01*
X155184612Y-129777262D01*
X154574493Y-129896310D01*
X155578958Y-129479643D02*
X156055148Y-129479643D01*
X155653363Y-130312976D02*
X155787291Y-129241548D01*
X155861696Y-129122500D01*
X155988184Y-129062976D01*
X156107232Y-129062976D01*
X156546220Y-130312976D02*
X156434613Y-130253452D01*
X156389970Y-130134405D01*
X156523899Y-129062976D01*
X157506042Y-130253452D02*
X157379554Y-130312976D01*
X157141459Y-130312976D01*
X157029851Y-130253452D01*
X156985208Y-130134405D01*
X157044732Y-129658214D01*
X157119137Y-129539167D01*
X157245625Y-129479643D01*
X157483720Y-129479643D01*
X157595328Y-129539167D01*
X157639970Y-129658214D01*
X157625089Y-129777262D01*
X157014970Y-129896310D01*
X158636994Y-130253452D02*
X158510507Y-130312976D01*
X158272411Y-130312976D01*
X158160804Y-130253452D01*
X158108720Y-130193929D01*
X158064077Y-130074881D01*
X158108720Y-129717738D01*
X158183125Y-129598690D01*
X158250090Y-129539167D01*
X158376577Y-129479643D01*
X158614673Y-129479643D01*
X158726280Y-129539167D01*
X159090864Y-129479643D02*
X159567054Y-129479643D01*
X159321519Y-129062976D02*
X159187590Y-130134405D01*
X159232233Y-130253452D01*
X159343840Y-130312976D01*
X159462888Y-130312976D01*
X160363186Y-130253452D02*
X160236698Y-130312976D01*
X159998603Y-130312976D01*
X159886995Y-130253452D01*
X159842352Y-130134405D01*
X159901876Y-129658214D01*
X159976281Y-129539167D01*
X160102769Y-129479643D01*
X160340864Y-129479643D01*
X160452472Y-129539167D01*
X160497114Y-129658214D01*
X160482233Y-129777262D01*
X159872114Y-129896310D01*
X161486698Y-130312976D02*
X161642948Y-129062976D01*
X161494138Y-130253452D02*
X161367651Y-130312976D01*
X161129555Y-130312976D01*
X161017948Y-130253452D01*
X160965864Y-130193929D01*
X160921221Y-130074881D01*
X160965864Y-129717738D01*
X161040269Y-129598690D01*
X161107234Y-129539167D01*
X161233721Y-129479643D01*
X161471817Y-129479643D01*
X161583424Y-129539167D01*
X156516459Y-132437976D02*
X156598304Y-131783214D01*
X156553662Y-131664167D01*
X156442054Y-131604643D01*
X156203959Y-131604643D01*
X156077471Y-131664167D01*
X156523899Y-132378452D02*
X156397412Y-132437976D01*
X156099793Y-132437976D01*
X155988185Y-132378452D01*
X155943542Y-132259405D01*
X155958423Y-132140357D01*
X156032828Y-132021310D01*
X156159316Y-131961786D01*
X156456935Y-131961786D01*
X156583423Y-131902262D01*
X157647411Y-132437976D02*
X157803661Y-131187976D01*
X157654851Y-132378452D02*
X157528364Y-132437976D01*
X157290268Y-132437976D01*
X157178661Y-132378452D01*
X157126577Y-132318929D01*
X157081934Y-132199881D01*
X157126577Y-131842738D01*
X157200982Y-131723690D01*
X157267947Y-131664167D01*
X157394434Y-131604643D01*
X157632530Y-131604643D01*
X157744137Y-131664167D01*
X158346815Y-131604643D02*
X158212887Y-132676071D01*
X158138482Y-132795119D01*
X158011994Y-132854643D01*
X157952470Y-132854643D01*
X158398899Y-131187976D02*
X158331934Y-131247500D01*
X158384018Y-131307024D01*
X158450982Y-131247500D01*
X158398899Y-131187976D01*
X158384018Y-131307024D01*
X158852767Y-132318929D02*
X158904851Y-132378452D01*
X158837887Y-132437976D01*
X158785803Y-132378452D01*
X158852767Y-132318929D01*
X158837887Y-132437976D01*
X127239733Y-129658214D02*
X126823066Y-129658214D01*
X126741221Y-130312976D02*
X126897471Y-129062976D01*
X127492709Y-129062976D01*
X127991221Y-130312976D02*
X127879614Y-130253452D01*
X127827530Y-130193929D01*
X127782887Y-130074881D01*
X127827530Y-129717738D01*
X127901935Y-129598690D01*
X127968900Y-129539167D01*
X128095387Y-129479643D01*
X128273959Y-129479643D01*
X128385567Y-129539167D01*
X128437649Y-129598690D01*
X128482292Y-129717738D01*
X128437649Y-130074881D01*
X128363244Y-130193929D01*
X128296281Y-130253452D01*
X128169793Y-130312976D01*
X127991221Y-130312976D01*
X128943602Y-130312976D02*
X129047768Y-129479643D01*
X129018006Y-129717738D02*
X129092411Y-129598690D01*
X129159376Y-129539167D01*
X129285863Y-129479643D01*
X129404911Y-129479643D01*
X129702530Y-129479643D02*
X129836460Y-130312976D01*
X130148959Y-129717738D01*
X130312650Y-130312976D01*
X130654911Y-129479643D01*
X131562650Y-130312976D02*
X131644495Y-129658214D01*
X131599853Y-129539167D01*
X131488245Y-129479643D01*
X131250150Y-129479643D01*
X131123662Y-129539167D01*
X131570090Y-130253452D02*
X131443603Y-130312976D01*
X131145984Y-130312976D01*
X131034376Y-130253452D01*
X130989733Y-130134405D01*
X131004614Y-130015357D01*
X131079019Y-129896310D01*
X131205507Y-129836786D01*
X131503126Y-129836786D01*
X131629614Y-129777262D01*
X132157888Y-130312976D02*
X132262054Y-129479643D01*
X132232292Y-129717738D02*
X132306697Y-129598690D01*
X132373662Y-129539167D01*
X132500149Y-129479643D01*
X132619197Y-129479643D01*
X133467412Y-130312976D02*
X133623662Y-129062976D01*
X133474852Y-130253452D02*
X133348365Y-130312976D01*
X133110269Y-130312976D01*
X132998662Y-130253452D01*
X132946578Y-130193929D01*
X132901935Y-130074881D01*
X132946578Y-129717738D01*
X133020983Y-129598690D01*
X133087948Y-129539167D01*
X133214435Y-129479643D01*
X133452531Y-129479643D01*
X133564138Y-129539167D01*
X129211459Y-132437976D02*
X129293304Y-131783214D01*
X129248662Y-131664167D01*
X129137054Y-131604643D01*
X128898959Y-131604643D01*
X128772471Y-131664167D01*
X129218899Y-132378452D02*
X129092412Y-132437976D01*
X128794793Y-132437976D01*
X128683185Y-132378452D01*
X128638542Y-132259405D01*
X128653423Y-132140357D01*
X128727828Y-132021310D01*
X128854316Y-131961786D01*
X129151935Y-131961786D01*
X129278423Y-131902262D01*
X130342411Y-132437976D02*
X130498661Y-131187976D01*
X130349851Y-132378452D02*
X130223364Y-132437976D01*
X129985268Y-132437976D01*
X129873661Y-132378452D01*
X129821577Y-132318929D01*
X129776934Y-132199881D01*
X129821577Y-131842738D01*
X129895982Y-131723690D01*
X129962947Y-131664167D01*
X130089434Y-131604643D01*
X130327530Y-131604643D01*
X130439137Y-131664167D01*
X131041815Y-131604643D02*
X130907887Y-132676071D01*
X130833482Y-132795119D01*
X130706994Y-132854643D01*
X130647470Y-132854643D01*
X131093899Y-131187976D02*
X131026934Y-131247500D01*
X131079018Y-131307024D01*
X131145982Y-131247500D01*
X131093899Y-131187976D01*
X131079018Y-131307024D01*
X131547767Y-132318929D02*
X131599851Y-132378452D01*
X131532887Y-132437976D01*
X131480803Y-132378452D01*
X131547767Y-132318929D01*
X131532887Y-132437976D01*
D14*
X167200000Y-129160000D02*
G75*
G03X167200000Y-129160000I-2750000J0D01*
G01*
X125700000Y-129160000D02*
G75*
G03X125700000Y-129160000I-2750000J0D01*
G01*
X125700000Y-79160000D02*
G75*
G03X125700000Y-79160000I-2750000J0D01*
G01*
X167200000Y-79160000D02*
G75*
G03X167200000Y-79160000I-2750000J0D01*
G01*
D15*
X124700000Y-65660000D02*
X124700000Y-65910000D01*
X162700000Y-65660000D02*
X124700000Y-65660000D01*
X162700000Y-65910000D02*
X162700000Y-65660000D01*
X162700000Y-142660000D02*
X162700000Y-142410000D01*
X124700000Y-142660000D02*
X162700000Y-142660000D01*
X124700000Y-142410000D02*
X124700000Y-142660000D01*
X117950000Y-72660000D02*
X117950000Y-135660000D01*
X169450000Y-135660000D02*
X169450000Y-72660000D01*
X169450000Y-135660000D02*
G75*
G03X162700000Y-142410000I0J-6750000D01*
G01*
X124700000Y-142410000D02*
G75*
G03X117950000Y-135660000I-6750000J0D01*
G01*
X117950000Y-72660000D02*
G75*
G03X124700000Y-65910000I0J6750000D01*
G01*
X162700000Y-65910000D02*
G75*
G03X169450000Y-72660000I6750000J0D01*
G01*
D16*
X146645715Y-101633571D02*
X146645715Y-100133571D01*
X147002858Y-100133571D01*
X147217143Y-100205000D01*
X147360001Y-100347857D01*
X147431429Y-100490714D01*
X147502858Y-100776429D01*
X147502858Y-100990714D01*
X147431429Y-101276429D01*
X147360001Y-101419286D01*
X147217143Y-101562143D01*
X147002858Y-101633571D01*
X146645715Y-101633571D01*
X148145715Y-101633571D02*
X148145715Y-100633571D01*
X148145715Y-100776429D02*
X148217143Y-100705000D01*
X148360001Y-100633571D01*
X148574286Y-100633571D01*
X148717143Y-100705000D01*
X148788572Y-100847857D01*
X148788572Y-101633571D01*
X148788572Y-100847857D02*
X148860001Y-100705000D01*
X149002858Y-100633571D01*
X149217143Y-100633571D01*
X149360001Y-100705000D01*
X149431429Y-100847857D01*
X149431429Y-101633571D01*
X150145715Y-101633571D02*
X150145715Y-100633571D01*
X150145715Y-100133571D02*
X150074286Y-100205000D01*
X150145715Y-100276429D01*
X150217143Y-100205000D01*
X150145715Y-100133571D01*
X150145715Y-100276429D01*
X150645715Y-100633571D02*
X151217144Y-100633571D01*
X150860001Y-100133571D02*
X150860001Y-101419286D01*
X150931429Y-101562143D01*
X151074287Y-101633571D01*
X151217144Y-101633571D01*
X151717144Y-101633571D02*
X151717144Y-100633571D01*
X151717144Y-100919286D02*
X151788572Y-100776429D01*
X151860001Y-100705000D01*
X152002858Y-100633571D01*
X152145715Y-100633571D01*
X152502858Y-100633571D02*
X152860001Y-101633571D01*
X153217143Y-100633571D02*
X152860001Y-101633571D01*
X152717143Y-101990714D01*
X152645715Y-102062143D01*
X152502858Y-102133571D01*
X142824286Y-104183571D02*
X142824286Y-102683571D01*
X143324286Y-103755000D01*
X143824286Y-102683571D01*
X143824286Y-104183571D01*
X145110000Y-104112143D02*
X144967143Y-104183571D01*
X144681429Y-104183571D01*
X144538572Y-104112143D01*
X144467143Y-103969286D01*
X144467143Y-103397857D01*
X144538572Y-103255000D01*
X144681429Y-103183571D01*
X144967143Y-103183571D01*
X145110000Y-103255000D01*
X145181429Y-103397857D01*
X145181429Y-103540714D01*
X144467143Y-103683571D01*
X146038572Y-104183571D02*
X145895714Y-104112143D01*
X145824286Y-103969286D01*
X145824286Y-102683571D01*
X146610000Y-103183571D02*
X146610000Y-104183571D01*
X146610000Y-103326429D02*
X146681428Y-103255000D01*
X146824286Y-103183571D01*
X147038571Y-103183571D01*
X147181428Y-103255000D01*
X147252857Y-103397857D01*
X147252857Y-104183571D01*
X147967143Y-104183571D02*
X147967143Y-103183571D01*
X147967143Y-102683571D02*
X147895714Y-102755000D01*
X147967143Y-102826429D01*
X148038571Y-102755000D01*
X147967143Y-102683571D01*
X147967143Y-102826429D01*
X149324286Y-104112143D02*
X149181429Y-104183571D01*
X148895715Y-104183571D01*
X148752857Y-104112143D01*
X148681429Y-104040714D01*
X148610000Y-103897857D01*
X148610000Y-103469286D01*
X148681429Y-103326429D01*
X148752857Y-103255000D01*
X148895715Y-103183571D01*
X149181429Y-103183571D01*
X149324286Y-103255000D01*
X149967143Y-104183571D02*
X149967143Y-102683571D01*
X150610000Y-104183571D02*
X150610000Y-103397857D01*
X150538571Y-103255000D01*
X150395714Y-103183571D01*
X150181429Y-103183571D01*
X150038571Y-103255000D01*
X149967143Y-103326429D01*
X151967143Y-104183571D02*
X151967143Y-103397857D01*
X151895714Y-103255000D01*
X151752857Y-103183571D01*
X151467143Y-103183571D01*
X151324286Y-103255000D01*
X151967143Y-104112143D02*
X151824286Y-104183571D01*
X151467143Y-104183571D01*
X151324286Y-104112143D01*
X151252857Y-103969286D01*
X151252857Y-103826429D01*
X151324286Y-103683571D01*
X151467143Y-103612143D01*
X151824286Y-103612143D01*
X151967143Y-103540714D01*
X152681429Y-103183571D02*
X152681429Y-104183571D01*
X152681429Y-103326429D02*
X152752857Y-103255000D01*
X152895715Y-103183571D01*
X153110000Y-103183571D01*
X153252857Y-103255000D01*
X153324286Y-103397857D01*
X153324286Y-104183571D01*
X153967143Y-104112143D02*
X154110000Y-104183571D01*
X154395715Y-104183571D01*
X154538572Y-104112143D01*
X154610000Y-103969286D01*
X154610000Y-103897857D01*
X154538572Y-103755000D01*
X154395715Y-103683571D01*
X154181429Y-103683571D01*
X154038572Y-103612143D01*
X153967143Y-103469286D01*
X153967143Y-103397857D01*
X154038572Y-103255000D01*
X154181429Y-103183571D01*
X154395715Y-103183571D01*
X154538572Y-103255000D01*
X155252858Y-104183571D02*
X155252858Y-102683571D01*
X155395715Y-103612143D02*
X155824286Y-104183571D01*
X155824286Y-103183571D02*
X155252858Y-103755000D01*
X156324287Y-103183571D02*
X156681430Y-104183571D01*
X157038572Y-103183571D02*
X156681430Y-104183571D01*
X156538572Y-104540714D01*
X156467144Y-104612143D01*
X156324287Y-104683571D01*
X147110001Y-105733571D02*
X147110001Y-106733571D01*
X146752858Y-105162143D02*
X146395715Y-106233571D01*
X147324287Y-106233571D01*
X147752858Y-105233571D02*
X148752858Y-106733571D01*
X148752858Y-105233571D02*
X147752858Y-106733571D01*
X150038572Y-105233571D02*
X149324286Y-105233571D01*
X149252857Y-105947857D01*
X149324286Y-105876429D01*
X149467143Y-105805000D01*
X149824286Y-105805000D01*
X149967143Y-105876429D01*
X150038572Y-105947857D01*
X150110000Y-106090714D01*
X150110000Y-106447857D01*
X150038572Y-106590714D01*
X149967143Y-106662143D01*
X149824286Y-106733571D01*
X149467143Y-106733571D01*
X149324286Y-106662143D01*
X149252857Y-106590714D01*
X150752857Y-106733571D02*
X150752857Y-105233571D01*
X151110000Y-105233571D01*
X151324285Y-105305000D01*
X151467143Y-105447857D01*
X151538571Y-105590714D01*
X151610000Y-105876429D01*
X151610000Y-106090714D01*
X151538571Y-106376429D01*
X151467143Y-106519286D01*
X151324285Y-106662143D01*
X151110000Y-106733571D01*
X150752857Y-106733571D01*
X152252857Y-106733571D02*
X152252857Y-105233571D01*
X152752857Y-106305000D01*
X153252857Y-105233571D01*
X153252857Y-106733571D01*
X165560238Y-124204762D02*
X165465000Y-124395238D01*
X165274524Y-124585715D01*
X164988810Y-124871429D01*
X164893571Y-125061905D01*
X164893571Y-125252381D01*
X165369762Y-125157143D02*
X165274524Y-125347619D01*
X165084048Y-125538096D01*
X164703095Y-125633334D01*
X164036429Y-125633334D01*
X163655476Y-125538096D01*
X163465000Y-125347619D01*
X163369762Y-125157143D01*
X163369762Y-124776191D01*
X163465000Y-124585715D01*
X163655476Y-124395238D01*
X164036429Y-124300000D01*
X164703095Y-124300000D01*
X165084048Y-124395238D01*
X165274524Y-124585715D01*
X165369762Y-124776191D01*
X165369762Y-125157143D01*
X165369762Y-122300000D02*
X164417381Y-122966667D01*
X165369762Y-123442858D02*
X163369762Y-123442858D01*
X163369762Y-122680953D01*
X163465000Y-122490477D01*
X163560238Y-122395238D01*
X163750714Y-122300000D01*
X164036429Y-122300000D01*
X164226905Y-122395238D01*
X164322143Y-122490477D01*
X164417381Y-122680953D01*
X164417381Y-123442858D01*
X165369762Y-121442858D02*
X163369762Y-121442858D01*
X163369762Y-120680953D01*
X163465000Y-120490477D01*
X163560238Y-120395238D01*
X163750714Y-120300000D01*
X164036429Y-120300000D01*
X164226905Y-120395238D01*
X164322143Y-120490477D01*
X164417381Y-120680953D01*
X164417381Y-121442858D01*
X165274524Y-118014286D02*
X165369762Y-117728571D01*
X165369762Y-117252381D01*
X165274524Y-117061905D01*
X165179286Y-116966667D01*
X164988810Y-116871428D01*
X164798333Y-116871428D01*
X164607857Y-116966667D01*
X164512619Y-117061905D01*
X164417381Y-117252381D01*
X164322143Y-117633333D01*
X164226905Y-117823809D01*
X164131667Y-117919048D01*
X163941190Y-118014286D01*
X163750714Y-118014286D01*
X163560238Y-117919048D01*
X163465000Y-117823809D01*
X163369762Y-117633333D01*
X163369762Y-117157143D01*
X163465000Y-116871428D01*
X163369762Y-116204762D02*
X165369762Y-115728571D01*
X163941190Y-115347619D01*
X165369762Y-114966666D01*
X163369762Y-114490476D01*
X165369762Y-112585714D02*
X164417381Y-113252381D01*
X165369762Y-113728572D02*
X163369762Y-113728572D01*
X163369762Y-112966667D01*
X163465000Y-112776191D01*
X163560238Y-112680952D01*
X163750714Y-112585714D01*
X164036429Y-112585714D01*
X164226905Y-112680952D01*
X164322143Y-112776191D01*
X164417381Y-112966667D01*
X164417381Y-113728572D01*
X165369762Y-110204762D02*
X163369762Y-110204762D01*
X164798333Y-109538095D01*
X163369762Y-108871428D01*
X165369762Y-108871428D01*
X165274524Y-107157143D02*
X165369762Y-107347619D01*
X165369762Y-107728571D01*
X165274524Y-107919048D01*
X165084048Y-108014286D01*
X164322143Y-108014286D01*
X164131667Y-107919048D01*
X164036429Y-107728571D01*
X164036429Y-107347619D01*
X164131667Y-107157143D01*
X164322143Y-107061905D01*
X164512619Y-107061905D01*
X164703095Y-108014286D01*
X164036429Y-106490476D02*
X164036429Y-105728571D01*
X163369762Y-106204762D02*
X165084048Y-106204762D01*
X165274524Y-106109523D01*
X165369762Y-105919047D01*
X165369762Y-105728571D01*
X165274524Y-104300000D02*
X165369762Y-104490476D01*
X165369762Y-104871428D01*
X165274524Y-105061905D01*
X165084048Y-105157143D01*
X164322143Y-105157143D01*
X164131667Y-105061905D01*
X164036429Y-104871428D01*
X164036429Y-104490476D01*
X164131667Y-104300000D01*
X164322143Y-104204762D01*
X164512619Y-104204762D01*
X164703095Y-105157143D01*
X165369762Y-103347619D02*
X164036429Y-103347619D01*
X164417381Y-103347619D02*
X164226905Y-103252380D01*
X164131667Y-103157142D01*
X164036429Y-102966666D01*
X164036429Y-102776190D01*
X161623333Y-71500715D02*
X161623333Y-70548334D01*
X162194762Y-71691191D02*
X160194762Y-71024524D01*
X162194762Y-70357857D01*
X162194762Y-69691191D02*
X160194762Y-69691191D01*
X162194762Y-68548333D01*
X160194762Y-68548333D01*
X160194762Y-67881667D02*
X160194762Y-66738810D01*
X162194762Y-67310238D02*
X160194762Y-67310238D01*
X126825238Y-66691190D02*
X126825238Y-67834047D01*
X124825238Y-67262619D02*
X126825238Y-67262619D01*
X124825238Y-69643572D02*
X125777619Y-68976905D01*
X124825238Y-68500714D02*
X126825238Y-68500714D01*
X126825238Y-69262619D01*
X126730000Y-69453095D01*
X126634762Y-69548334D01*
X126444286Y-69643572D01*
X126158571Y-69643572D01*
X125968095Y-69548334D01*
X125872857Y-69453095D01*
X125777619Y-69262619D01*
X125777619Y-68500714D01*
X126825238Y-70310238D02*
X124825238Y-71643572D01*
X126825238Y-71643572D02*
X124825238Y-70310238D01*
X154573334Y-82425000D02*
X154823334Y-82508333D01*
X154906667Y-82591667D01*
X154990001Y-82758333D01*
X154990001Y-83008333D01*
X154906667Y-83175000D01*
X154823334Y-83258333D01*
X154656667Y-83341667D01*
X153990001Y-83341667D01*
X153990001Y-81591667D01*
X154573334Y-81591667D01*
X154740001Y-81675000D01*
X154823334Y-81758333D01*
X154906667Y-81925000D01*
X154906667Y-82091667D01*
X154823334Y-82258333D01*
X154740001Y-82341667D01*
X154573334Y-82425000D01*
X153990001Y-82425000D01*
X155573334Y-82175000D02*
X155990001Y-83341667D01*
X156406667Y-82175000D02*
X155990001Y-83341667D01*
X155823334Y-83758333D01*
X155740001Y-83841667D01*
X155573334Y-83925000D01*
X157073334Y-82175000D02*
X157073334Y-83925000D01*
X157073334Y-82258333D02*
X157240000Y-82175000D01*
X157573334Y-82175000D01*
X157740000Y-82258333D01*
X157823334Y-82341667D01*
X157906667Y-82508333D01*
X157906667Y-83008333D01*
X157823334Y-83175000D01*
X157740000Y-83258333D01*
X157573334Y-83341667D01*
X157240000Y-83341667D01*
X157073334Y-83258333D01*
X159406667Y-83341667D02*
X159406667Y-82425000D01*
X159323333Y-82258333D01*
X159156667Y-82175000D01*
X158823333Y-82175000D01*
X158656667Y-82258333D01*
X159406667Y-83258333D02*
X159240000Y-83341667D01*
X158823333Y-83341667D01*
X158656667Y-83258333D01*
X158573333Y-83091667D01*
X158573333Y-82925000D01*
X158656667Y-82758333D01*
X158823333Y-82675000D01*
X159240000Y-82675000D01*
X159406667Y-82591667D01*
X160156666Y-83258333D02*
X160323333Y-83341667D01*
X160656666Y-83341667D01*
X160823333Y-83258333D01*
X160906666Y-83091667D01*
X160906666Y-83008333D01*
X160823333Y-82841667D01*
X160656666Y-82758333D01*
X160406666Y-82758333D01*
X160240000Y-82675000D01*
X160156666Y-82508333D01*
X160156666Y-82425000D01*
X160240000Y-82258333D01*
X160406666Y-82175000D01*
X160656666Y-82175000D01*
X160823333Y-82258333D01*
X161573333Y-83258333D02*
X161740000Y-83341667D01*
X162073333Y-83341667D01*
X162240000Y-83258333D01*
X162323333Y-83091667D01*
X162323333Y-83008333D01*
X162240000Y-82841667D01*
X162073333Y-82758333D01*
X161823333Y-82758333D01*
X161656667Y-82675000D01*
X161573333Y-82508333D01*
X161573333Y-82425000D01*
X161656667Y-82258333D01*
X161823333Y-82175000D01*
X162073333Y-82175000D01*
X162240000Y-82258333D01*
X153835000Y-79448333D02*
X154085000Y-79531667D01*
X154501667Y-79531667D01*
X154668334Y-79448333D01*
X154751667Y-79365000D01*
X154835000Y-79198333D01*
X154835000Y-79031667D01*
X154751667Y-78865000D01*
X154668334Y-78781667D01*
X154501667Y-78698333D01*
X154168334Y-78615000D01*
X154001667Y-78531667D01*
X153918334Y-78448333D01*
X153835000Y-78281667D01*
X153835000Y-78115000D01*
X153918334Y-77948333D01*
X154001667Y-77865000D01*
X154168334Y-77781667D01*
X154585000Y-77781667D01*
X154835000Y-77865000D01*
X155418334Y-77781667D02*
X155835001Y-79531667D01*
X156168334Y-78281667D01*
X156501667Y-79531667D01*
X156918334Y-77781667D01*
X158585001Y-79531667D02*
X158001667Y-78698333D01*
X157585001Y-79531667D02*
X157585001Y-77781667D01*
X158251667Y-77781667D01*
X158418334Y-77865000D01*
X158501667Y-77948333D01*
X158585001Y-78115000D01*
X158585001Y-78365000D01*
X158501667Y-78531667D01*
X158418334Y-78615000D01*
X158251667Y-78698333D01*
X157585001Y-78698333D01*
X133674466Y-134028571D02*
X133263751Y-133314286D01*
X132817323Y-134028571D02*
X133004823Y-132528571D01*
X133576251Y-132528571D01*
X133710180Y-132600000D01*
X133772679Y-132671429D01*
X133826251Y-132814286D01*
X133799466Y-133028571D01*
X133710179Y-133171429D01*
X133629823Y-133242857D01*
X133478036Y-133314286D01*
X132906608Y-133314286D01*
X134897679Y-133957143D02*
X134745894Y-134028571D01*
X134460180Y-134028571D01*
X134326251Y-133957143D01*
X134272679Y-133814286D01*
X134344108Y-133242857D01*
X134433394Y-133100000D01*
X134585180Y-133028571D01*
X134870894Y-133028571D01*
X135004822Y-133100000D01*
X135058394Y-133242857D01*
X135040537Y-133385714D01*
X134308394Y-133528571D01*
X135513751Y-133028571D02*
X136085180Y-133028571D01*
X135603037Y-134028571D02*
X135763751Y-132742857D01*
X135853036Y-132600000D01*
X136004823Y-132528571D01*
X136147680Y-132528571D01*
X136674466Y-134028571D02*
X136540536Y-133957143D01*
X136486965Y-133814286D01*
X136647680Y-132528571D01*
X137826250Y-133957143D02*
X137674465Y-134028571D01*
X137388751Y-134028571D01*
X137254822Y-133957143D01*
X137201250Y-133814286D01*
X137272679Y-133242857D01*
X137361965Y-133100000D01*
X137513751Y-133028571D01*
X137799465Y-133028571D01*
X137933393Y-133100000D01*
X137986965Y-133242857D01*
X137969108Y-133385714D01*
X137236965Y-133528571D01*
X139183393Y-133957143D02*
X139031608Y-134028571D01*
X138745894Y-134028571D01*
X138611964Y-133957143D01*
X138549465Y-133885714D01*
X138495893Y-133742857D01*
X138549464Y-133314286D01*
X138638750Y-133171429D01*
X138719107Y-133100000D01*
X138870894Y-133028571D01*
X139156608Y-133028571D01*
X139290536Y-133100000D01*
X139728036Y-133028571D02*
X140299465Y-133028571D01*
X140004822Y-132528571D02*
X139844107Y-133814286D01*
X139897678Y-133957143D01*
X140031608Y-134028571D01*
X140174465Y-134028571D01*
X141254821Y-133957143D02*
X141103036Y-134028571D01*
X140817322Y-134028571D01*
X140683393Y-133957143D01*
X140629821Y-133814286D01*
X140701250Y-133242857D01*
X140790536Y-133100000D01*
X140942322Y-133028571D01*
X141228036Y-133028571D01*
X141361964Y-133100000D01*
X141415536Y-133242857D01*
X141397679Y-133385714D01*
X140665536Y-133528571D01*
X142603036Y-134028571D02*
X142790536Y-132528571D01*
X142611964Y-133957143D02*
X142460179Y-134028571D01*
X142174465Y-134028571D01*
X142040535Y-133957143D01*
X141978036Y-133885714D01*
X141924464Y-133742857D01*
X141978035Y-133314286D01*
X142067321Y-133171429D01*
X142147678Y-133100000D01*
X142299465Y-133028571D01*
X142585179Y-133028571D01*
X142719107Y-133100000D01*
X145067679Y-133242857D02*
X144567679Y-133242857D01*
X144469465Y-134028571D02*
X144656965Y-132528571D01*
X145371251Y-132528571D01*
X145969465Y-134028571D02*
X145835535Y-133957143D01*
X145773036Y-133885714D01*
X145719464Y-133742857D01*
X145773035Y-133314286D01*
X145862321Y-133171429D01*
X145942678Y-133100000D01*
X146094465Y-133028571D01*
X146308750Y-133028571D01*
X146442678Y-133100000D01*
X146505178Y-133171429D01*
X146558750Y-133314286D01*
X146505179Y-133742857D01*
X146415893Y-133885714D01*
X146335535Y-133957143D01*
X146183750Y-134028571D01*
X145969465Y-134028571D01*
X147112322Y-134028571D02*
X147237322Y-133028571D01*
X147201607Y-133314286D02*
X147290892Y-133171429D01*
X147371250Y-133100000D01*
X147523036Y-133028571D01*
X147665893Y-133028571D01*
X148023036Y-133028571D02*
X148183750Y-134028571D01*
X148558749Y-133314286D01*
X148755179Y-134028571D01*
X149165893Y-133028571D01*
X150255179Y-134028571D02*
X150353393Y-133242857D01*
X150299821Y-133100000D01*
X150165893Y-133028571D01*
X149880179Y-133028571D01*
X149728393Y-133100000D01*
X150264107Y-133957143D02*
X150112322Y-134028571D01*
X149755179Y-134028571D01*
X149621250Y-133957143D01*
X149567678Y-133814286D01*
X149585535Y-133671429D01*
X149674822Y-133528571D01*
X149826607Y-133457143D01*
X150183750Y-133457143D01*
X150335536Y-133385714D01*
X150969465Y-134028571D02*
X151094465Y-133028571D01*
X151058750Y-133314286D02*
X151148035Y-133171429D01*
X151228393Y-133100000D01*
X151380179Y-133028571D01*
X151523036Y-133028571D01*
X152540893Y-134028571D02*
X152728393Y-132528571D01*
X152549821Y-133957143D02*
X152398036Y-134028571D01*
X152112322Y-134028571D01*
X151978392Y-133957143D01*
X151915893Y-133885714D01*
X151862321Y-133742857D01*
X151915892Y-133314286D01*
X152005178Y-133171429D01*
X152085535Y-133100000D01*
X152237322Y-133028571D01*
X152523036Y-133028571D01*
X152656964Y-133100000D01*
D15*
X137160000Y-130810000D02*
X138430000Y-130810000D01*
X149225000Y-130175000D02*
X149225000Y-131445000D01*
X148590000Y-130810000D02*
X149860000Y-130810000D01*
X141859000Y-123952000D02*
X141351000Y-123952000D01*
X145415000Y-123698000D02*
X145415000Y-124206000D01*
X145161000Y-123952000D02*
X145669000Y-123952000D01*
X137795000Y-124460000D02*
X137795000Y-125095000D01*
X142240000Y-124460000D02*
X137795000Y-124460000D01*
X144780000Y-124460000D02*
X149225000Y-124460000D01*
X149225000Y-124460000D02*
X149225000Y-125095000D01*
X144145000Y-123825000D02*
X144018000Y-124333000D01*
X144145000Y-123825000D02*
X143637000Y-123952000D01*
X142875000Y-125095000D02*
X144145000Y-123825000D01*
X144780000Y-124460000D02*
G75*
G03X144780000Y-124460000I-1270000J0D01*
G01*
X133985000Y-129540000D02*
X133985000Y-121285000D01*
X153035000Y-121285000D02*
X153035000Y-129540000D01*
X143510000Y-111760000D02*
G75*
G03X133985000Y-121285000I0J-9525000D01*
G01*
X153035000Y-121285000D02*
G75*
G03X143510000Y-111760000I-9525000J0D01*
G01*
X133985000Y-129540000D02*
X153035000Y-129540000D01*
X127000000Y-116840000D02*
X127000000Y-121920000D01*
X127000000Y-121920000D02*
X124460000Y-121920000D01*
X124460000Y-121920000D02*
X124460000Y-116840000D01*
X124460000Y-116840000D02*
X127000000Y-116840000D01*
X125730000Y-116840000D02*
X125730000Y-115570000D01*
X125730000Y-121920000D02*
X125730000Y-123190000D01*
X161290000Y-111760000D02*
X161290000Y-116840000D01*
X161290000Y-116840000D02*
X158750000Y-116840000D01*
X158750000Y-116840000D02*
X158750000Y-111760000D01*
X158750000Y-111760000D02*
X161290000Y-111760000D01*
X160020000Y-111760000D02*
X160020000Y-110490000D01*
X160020000Y-116840000D02*
X160020000Y-118110000D01*
X157185360Y-136819640D02*
X157185360Y-136057640D01*
X157693360Y-136819640D02*
X157693360Y-136057640D01*
X157185360Y-138851640D02*
G75*
G03X159090360Y-137454640I254000J1651000D01*
G01*
X155788360Y-137327640D02*
G75*
G03X157566360Y-138851640I1651000J127000D01*
G01*
X158836360Y-138089640D02*
G75*
G03X158328360Y-135803640I-1397000J889000D01*
G01*
X156550360Y-135803640D02*
G75*
G03X156042360Y-138089640I889000J-1397000D01*
G01*
X154137360Y-141010640D02*
X154137360Y-140883640D01*
X154137360Y-137200640D02*
X154137360Y-138597640D01*
X160741360Y-141010640D02*
X160741360Y-140883640D01*
X160741360Y-137200640D02*
X160741360Y-138597640D01*
X156296360Y-140121640D02*
X156677360Y-140248640D01*
X156677360Y-140248640D02*
X157439360Y-140375640D01*
X157439360Y-140375640D02*
X158201360Y-140248640D01*
X158201360Y-140248640D02*
X158582360Y-140121640D01*
X156169360Y-139232640D02*
X158709360Y-139232640D01*
X160360360Y-138470640D02*
G75*
G03X158709360Y-134279640I-2921000J1270000D01*
G01*
X156169360Y-134279640D02*
G75*
G03X154518360Y-138470640I1270000J-2921000D01*
G01*
X159471360Y-133898640D02*
X158582360Y-133898640D01*
X156296360Y-133898640D02*
X155407360Y-133898640D01*
X159090360Y-136819640D02*
X159598360Y-136819640D01*
X159598360Y-136819640D02*
X159598360Y-137581640D01*
X159598360Y-137581640D02*
X159090360Y-137581640D01*
X155788360Y-136819640D02*
X155280360Y-136819640D01*
X155280360Y-136819640D02*
X155280360Y-137581640D01*
X155280360Y-137581640D02*
X155788360Y-137581640D01*
X157947360Y-137454640D02*
X159090360Y-137454640D01*
X157947360Y-136946640D02*
X159090360Y-136946640D01*
X156931360Y-137454640D02*
X155788360Y-137454640D01*
X156931360Y-136946640D02*
X155788360Y-136946640D01*
X157693360Y-137581640D02*
X157693360Y-138851640D01*
X157185360Y-137581640D02*
X157185360Y-138851640D01*
X156931360Y-136819640D02*
X156931360Y-137581640D01*
X156931360Y-137581640D02*
X157947360Y-137581640D01*
X157947360Y-137581640D02*
X157947360Y-136819640D01*
X157947360Y-136819640D02*
X156931360Y-136819640D01*
X155407360Y-133898640D02*
X154137360Y-135295640D01*
X154137360Y-135295640D02*
X154137360Y-137200640D01*
X159471360Y-133898640D02*
X160741360Y-135295640D01*
X160741360Y-135295640D02*
X160741360Y-137200640D01*
X160487360Y-141010640D02*
X160487360Y-141264640D01*
X160487360Y-141264640D02*
X159344360Y-141264640D01*
X159344360Y-141264640D02*
X159344360Y-141010640D01*
X154391360Y-141010640D02*
X154391360Y-141264640D01*
X154391360Y-141264640D02*
X155534360Y-141264640D01*
X155534360Y-141264640D02*
X155534360Y-141010640D01*
X154137360Y-141010640D02*
X160741360Y-141010640D01*
X129245360Y-136819640D02*
X129245360Y-136057640D01*
X129753360Y-136819640D02*
X129753360Y-136057640D01*
X129245360Y-138851640D02*
G75*
G03X131150360Y-137454640I254000J1651000D01*
G01*
X127848360Y-137327640D02*
G75*
G03X129626360Y-138851640I1651000J127000D01*
G01*
X130896360Y-138089640D02*
G75*
G03X130388360Y-135803640I-1397000J889000D01*
G01*
X128610360Y-135803640D02*
G75*
G03X128102360Y-138089640I889000J-1397000D01*
G01*
X126197360Y-141010640D02*
X126197360Y-140883640D01*
X126197360Y-137200640D02*
X126197360Y-138597640D01*
X132801360Y-141010640D02*
X132801360Y-140883640D01*
X132801360Y-137200640D02*
X132801360Y-138597640D01*
X128356360Y-140121640D02*
X128737360Y-140248640D01*
X128737360Y-140248640D02*
X129499360Y-140375640D01*
X129499360Y-140375640D02*
X130261360Y-140248640D01*
X130261360Y-140248640D02*
X130642360Y-140121640D01*
X128229360Y-139232640D02*
X130769360Y-139232640D01*
X132420360Y-138470640D02*
G75*
G03X130769360Y-134279640I-2921000J1270000D01*
G01*
X128229360Y-134279640D02*
G75*
G03X126578360Y-138470640I1270000J-2921000D01*
G01*
X131531360Y-133898640D02*
X130642360Y-133898640D01*
X128356360Y-133898640D02*
X127467360Y-133898640D01*
X131150360Y-136819640D02*
X131658360Y-136819640D01*
X131658360Y-136819640D02*
X131658360Y-137581640D01*
X131658360Y-137581640D02*
X131150360Y-137581640D01*
X127848360Y-136819640D02*
X127340360Y-136819640D01*
X127340360Y-136819640D02*
X127340360Y-137581640D01*
X127340360Y-137581640D02*
X127848360Y-137581640D01*
X130007360Y-137454640D02*
X131150360Y-137454640D01*
X130007360Y-136946640D02*
X131150360Y-136946640D01*
X128991360Y-137454640D02*
X127848360Y-137454640D01*
X128991360Y-136946640D02*
X127848360Y-136946640D01*
X129753360Y-137581640D02*
X129753360Y-138851640D01*
X129245360Y-137581640D02*
X129245360Y-138851640D01*
X128991360Y-136819640D02*
X128991360Y-137581640D01*
X128991360Y-137581640D02*
X130007360Y-137581640D01*
X130007360Y-137581640D02*
X130007360Y-136819640D01*
X130007360Y-136819640D02*
X128991360Y-136819640D01*
X127467360Y-133898640D02*
X126197360Y-135295640D01*
X126197360Y-135295640D02*
X126197360Y-137200640D01*
X131531360Y-133898640D02*
X132801360Y-135295640D01*
X132801360Y-135295640D02*
X132801360Y-137200640D01*
X132547360Y-141010640D02*
X132547360Y-141264640D01*
X132547360Y-141264640D02*
X131404360Y-141264640D01*
X131404360Y-141264640D02*
X131404360Y-141010640D01*
X126451360Y-141010640D02*
X126451360Y-141264640D01*
X126451360Y-141264640D02*
X127594360Y-141264640D01*
X127594360Y-141264640D02*
X127594360Y-141010640D01*
X126197360Y-141010640D02*
X132801360Y-141010640D01*
X135585200Y-68850000D02*
X135585200Y-70850000D01*
X133080000Y-73355200D02*
X131080000Y-73355200D01*
X128574800Y-70850000D02*
X128574800Y-68850000D01*
X131080000Y-66344800D02*
X133080000Y-66344800D01*
X158445200Y-68850000D02*
X158445200Y-70850000D01*
X155940000Y-73355200D02*
X153940000Y-73355200D01*
X151434800Y-70850000D02*
X151434800Y-68850000D01*
X153940000Y-66344800D02*
X155940000Y-66344800D01*
X146204077Y-138430000D02*
G75*
G03X146204077Y-138430000I-2694077J0D01*
G01*
X145799525Y-138430000D02*
G75*
G03X145799525Y-138430000I-2289525J0D01*
G01*
X137160000Y-141780000D02*
X137160000Y-135080000D01*
X137160000Y-135080000D02*
X149860000Y-135080000D01*
X149860000Y-135080000D02*
X149860000Y-141780000D01*
X149860000Y-141780000D02*
X137160000Y-141780000D01*
X145288000Y-138430000D02*
G75*
G03X145288000Y-138430000I-508000J0D01*
G01*
X143510000Y-137922000D02*
X144780000Y-137922000D01*
X144780000Y-138938000D02*
X143510000Y-138938000D01*
X143002000Y-138430000D02*
G75*
G03X143510000Y-138938000I508000J0D01*
G01*
X143510000Y-137922000D02*
G75*
G03X143002000Y-138430000I0J-508000D01*
G01*
X147102102Y-78740000D02*
G75*
G03X147102102Y-78740000I-3592102J0D01*
G01*
X149510000Y-85090000D02*
X137510000Y-85090000D01*
X137510000Y-85090000D02*
X137510000Y-72390000D01*
X137510000Y-72390000D02*
X149510000Y-72390000D01*
X149510000Y-72390000D02*
X149510000Y-85090000D01*
X146050000Y-78740000D02*
G75*
G03X146050000Y-78740000I-2540000J0D01*
G01*
X144018000Y-77470000D02*
G75*
G03X144018000Y-77470000I-508000J0D01*
G01*
X143002000Y-78740000D02*
X143002000Y-77470000D01*
X144018000Y-77470000D02*
X144018000Y-78740000D01*
X143510000Y-79248000D02*
G75*
G03X144018000Y-78740000I0J508000D01*
G01*
X143002000Y-78740000D02*
G75*
G03X143510000Y-79248000I508000J0D01*
G01*
X131826000Y-114300000D02*
X130556000Y-114300000D01*
X131826000Y-115316000D02*
X131826000Y-113284000D01*
X132334000Y-115316000D02*
X132334000Y-113284000D01*
X133604000Y-114300000D02*
X132334000Y-114300000D01*
X130810000Y-122174000D02*
X130810000Y-123444000D01*
X131826000Y-122174000D02*
X129794000Y-122174000D01*
X131826000Y-121666000D02*
X129794000Y-121666000D01*
X130810000Y-120396000D02*
X130810000Y-121666000D01*
X148336000Y-109220000D02*
X145796000Y-109220000D01*
X148844000Y-109220000D02*
X151384000Y-109220000D01*
X148844000Y-108204000D02*
X148844000Y-110236000D01*
X148336000Y-108204000D02*
X148336000Y-110236000D01*
X154940000Y-119634000D02*
X154940000Y-120904000D01*
X155956000Y-119634000D02*
X153924000Y-119634000D01*
X155956000Y-119126000D02*
X153924000Y-119126000D01*
X154940000Y-117856000D02*
X154940000Y-119126000D01*
X121158000Y-116205000D02*
X122682000Y-116205000D01*
X121158000Y-116078000D02*
X122682000Y-116078000D01*
X121285000Y-114935000D02*
X122555000Y-114935000D01*
X121920000Y-114935000D02*
X121285000Y-113665000D01*
X121285000Y-113665000D02*
X122555000Y-113665000D01*
X122555000Y-113665000D02*
X121920000Y-114935000D01*
X121917460Y-112013480D02*
X121917460Y-110490000D01*
X121917460Y-116585480D02*
X121917460Y-118110000D01*
X121155460Y-115950480D02*
X122679460Y-115950480D01*
X121917460Y-116585480D02*
X122679460Y-116585480D01*
X122679460Y-116585480D02*
X122679460Y-112013480D01*
X122679460Y-112013480D02*
X121155460Y-112013480D01*
X121155460Y-112013480D02*
X121155460Y-116585480D01*
X121155460Y-116585480D02*
X121917460Y-116585480D01*
X158115000Y-100838000D02*
X158115000Y-102362000D01*
X158242000Y-100838000D02*
X158242000Y-102362000D01*
X159385000Y-100965000D02*
X159385000Y-102235000D01*
X159385000Y-101600000D02*
X160655000Y-100965000D01*
X160655000Y-100965000D02*
X160655000Y-102235000D01*
X160655000Y-102235000D02*
X159385000Y-101600000D01*
X162306520Y-101597460D02*
X163830000Y-101597460D01*
X157734520Y-101597460D02*
X156210000Y-101597460D01*
X158369520Y-100835460D02*
X158369520Y-102359460D01*
X157734520Y-101597460D02*
X157734520Y-102359460D01*
X157734520Y-102359460D02*
X162306520Y-102359460D01*
X162306520Y-102359460D02*
X162306520Y-100835460D01*
X162306520Y-100835460D02*
X157734520Y-100835460D01*
X157734520Y-100835460D02*
X157734520Y-101597460D01*
X136525000Y-93980000D02*
X132715000Y-93980000D01*
X132715000Y-93980000D02*
X132715000Y-104140000D01*
X132715000Y-104140000D02*
X136525000Y-104140000D01*
X136525000Y-104140000D02*
X136525000Y-93980000D01*
X134620000Y-107950000D02*
X134620000Y-104140000D01*
X134620000Y-90170000D02*
X134620000Y-93980000D01*
X125095000Y-99060000D02*
X128905000Y-99060000D01*
X128905000Y-99060000D02*
X128905000Y-88900000D01*
X128905000Y-88900000D02*
X125095000Y-88900000D01*
X125095000Y-88900000D02*
X125095000Y-99060000D01*
X127000000Y-85090000D02*
X127000000Y-88900000D01*
X127000000Y-102870000D02*
X127000000Y-99060000D01*
X141605000Y-93980000D02*
X137795000Y-93980000D01*
X137795000Y-93980000D02*
X137795000Y-104140000D01*
X137795000Y-104140000D02*
X141605000Y-104140000D01*
X141605000Y-104140000D02*
X141605000Y-93980000D01*
X139700000Y-107950000D02*
X139700000Y-104140000D01*
X139700000Y-90170000D02*
X139700000Y-93980000D01*
X120015000Y-99060000D02*
X123825000Y-99060000D01*
X123825000Y-99060000D02*
X123825000Y-88900000D01*
X123825000Y-88900000D02*
X120015000Y-88900000D01*
X120015000Y-88900000D02*
X120015000Y-99060000D01*
X121920000Y-85090000D02*
X121920000Y-88900000D01*
X121920000Y-102870000D02*
X121920000Y-99060000D01*
X160020000Y-98425000D02*
X160020000Y-94615000D01*
X160020000Y-94615000D02*
X149860000Y-94615000D01*
X149860000Y-94615000D02*
X149860000Y-98425000D01*
X149860000Y-98425000D02*
X160020000Y-98425000D01*
X146050000Y-96520000D02*
X149860000Y-96520000D01*
X163830000Y-96520000D02*
X160020000Y-96520000D01*
X160020000Y-93345000D02*
X160020000Y-89535000D01*
X160020000Y-89535000D02*
X149860000Y-89535000D01*
X149860000Y-89535000D02*
X149860000Y-93345000D01*
X149860000Y-93345000D02*
X160020000Y-93345000D01*
X146050000Y-91440000D02*
X149860000Y-91440000D01*
X163830000Y-91440000D02*
X160020000Y-91440000D01*
D10*
X166000000Y-79160000D02*
G75*
G03X166000000Y-79160000I-1550000J0D01*
G01*
X124500000Y-79160000D02*
G75*
G03X124500000Y-79160000I-1550000J0D01*
G01*
X124500000Y-129160000D02*
G75*
G03X124500000Y-129160000I-1550000J0D01*
G01*
X126680000Y-114300000D02*
G75*
G03X126680000Y-114300000I-950000J0D01*
G01*
X126680000Y-124460000D02*
G75*
G03X126680000Y-124460000I-950000J0D01*
G01*
X160969490Y-109220000D02*
G75*
G03X160969490Y-109220000I-949490J0D01*
G01*
X160969490Y-119380000D02*
G75*
G03X160969490Y-119380000I-949490J0D01*
G01*
X158639040Y-134660640D02*
G75*
G03X158639040Y-134660640I-1199680J0D01*
G01*
X161138400Y-139700000D02*
G75*
G03X161138400Y-139700000I-1199680J0D01*
G01*
X156139680Y-139700000D02*
G75*
G03X156139680Y-139700000I-1199680J0D01*
G01*
X130699040Y-134660640D02*
G75*
G03X130699040Y-134660640I-1199680J0D01*
G01*
X133198400Y-139700000D02*
G75*
G03X133198400Y-139700000I-1199680J0D01*
G01*
X128199680Y-139700000D02*
G75*
G03X128199680Y-139700000I-1199680J0D01*
G01*
X130860000Y-67310000D02*
G75*
G03X130860000Y-67310000I-1320000J0D01*
G01*
X130860000Y-72390000D02*
G75*
G03X130860000Y-72390000I-1320000J0D01*
G01*
X135940000Y-72390000D02*
G75*
G03X135940000Y-72390000I-1320000J0D01*
G01*
X135940000Y-67310000D02*
G75*
G03X135940000Y-67310000I-1320000J0D01*
G01*
X133150000Y-69850000D02*
G75*
G03X133150000Y-69850000I-1070000J0D01*
G01*
X166000000Y-129160000D02*
G75*
G03X166000000Y-129160000I-1550000J0D01*
G01*
X153720000Y-67310000D02*
G75*
G03X153720000Y-67310000I-1320000J0D01*
G01*
X153720000Y-72390000D02*
G75*
G03X153720000Y-72390000I-1320000J0D01*
G01*
X158800000Y-72390000D02*
G75*
G03X158800000Y-72390000I-1320000J0D01*
G01*
X158800000Y-67310000D02*
G75*
G03X158800000Y-67310000I-1320000J0D01*
G01*
X156010000Y-69850000D02*
G75*
G03X156010000Y-69850000I-1070000J0D01*
G01*
X130390000Y-114300000D02*
G75*
G03X130390000Y-114300000I-850000J0D01*
G01*
X131660000Y-124460000D02*
G75*
G03X131660000Y-124460000I-850000J0D01*
G01*
X153250000Y-109220000D02*
G75*
G03X153250000Y-109220000I-850000J0D01*
G01*
X155790000Y-121920000D02*
G75*
G03X155790000Y-121920000I-850000J0D01*
G01*
X122717090Y-109219480D02*
G75*
G03X122717090Y-109219480I-799630J0D01*
G01*
X165900150Y-101597460D02*
G75*
G03X165900150Y-101597460I-799630J0D01*
G01*
X135840000Y-88900000D02*
G75*
G03X135840000Y-88900000I-1220000J0D01*
G01*
X135840000Y-109220000D02*
G75*
G03X135840000Y-109220000I-1220000J0D01*
G01*
X128220000Y-104140000D02*
G75*
G03X128220000Y-104140000I-1220000J0D01*
G01*
X128220000Y-83820000D02*
G75*
G03X128220000Y-83820000I-1220000J0D01*
G01*
X140920000Y-88900000D02*
G75*
G03X140920000Y-88900000I-1220000J0D01*
G01*
X140920000Y-109220000D02*
G75*
G03X140920000Y-109220000I-1220000J0D01*
G01*
X123140000Y-104140000D02*
G75*
G03X123140000Y-104140000I-1220000J0D01*
G01*
X123140000Y-83820000D02*
G75*
G03X123140000Y-83820000I-1220000J0D01*
G01*
X166320000Y-96520000D02*
G75*
G03X166320000Y-96520000I-1220000J0D01*
G01*
X146000000Y-96520000D02*
G75*
G03X146000000Y-96520000I-1220000J0D01*
G01*
X166320000Y-91440000D02*
G75*
G03X166320000Y-91440000I-1220000J0D01*
G01*
X146000000Y-91440000D02*
G75*
G03X146000000Y-91440000I-1220000J0D01*
G01*
D15*
X142343333Y-117292381D02*
X142343333Y-116292381D01*
X142724286Y-116292381D01*
X142819524Y-116340000D01*
X142867143Y-116387619D01*
X142914762Y-116482857D01*
X142914762Y-116625714D01*
X142867143Y-116720952D01*
X142819524Y-116768571D01*
X142724286Y-116816190D01*
X142343333Y-116816190D01*
X143295714Y-117006667D02*
X143771905Y-117006667D01*
X143200476Y-117292381D02*
X143533809Y-116292381D01*
X143867143Y-117292381D01*
X144724286Y-117292381D02*
X144152857Y-117292381D01*
X144438571Y-117292381D02*
X144438571Y-116292381D01*
X144343333Y-116435238D01*
X144248095Y-116530476D01*
X144152857Y-116578095D01*
D13*
X141010000Y-119265000D02*
X141010000Y-122765000D01*
X142676667Y-121098333D02*
X142843334Y-121431667D01*
X143176667Y-121598333D01*
X141010000Y-121098333D02*
X141176667Y-121431667D01*
X141510000Y-121598333D01*
X142176667Y-121598333D01*
X142510000Y-121431667D01*
X142676667Y-121098333D01*
X142676667Y-119265000D01*
X144510001Y-120598333D02*
X146176667Y-120598333D01*
X144176667Y-121598333D02*
X145343334Y-118098333D01*
X146510001Y-121598333D01*
D15*
X125563334Y-112847381D02*
X125230000Y-112371190D01*
X124991905Y-112847381D02*
X124991905Y-111847381D01*
X125372858Y-111847381D01*
X125468096Y-111895000D01*
X125515715Y-111942619D01*
X125563334Y-112037857D01*
X125563334Y-112180714D01*
X125515715Y-112275952D01*
X125468096Y-112323571D01*
X125372858Y-112371190D01*
X124991905Y-112371190D01*
X126515715Y-112847381D02*
X125944286Y-112847381D01*
X126230000Y-112847381D02*
X126230000Y-111847381D01*
X126134762Y-111990238D01*
X126039524Y-112085476D01*
X125944286Y-112133095D01*
X159853334Y-107767381D02*
X159520000Y-107291190D01*
X159281905Y-107767381D02*
X159281905Y-106767381D01*
X159662858Y-106767381D01*
X159758096Y-106815000D01*
X159805715Y-106862619D01*
X159853334Y-106957857D01*
X159853334Y-107100714D01*
X159805715Y-107195952D01*
X159758096Y-107243571D01*
X159662858Y-107291190D01*
X159281905Y-107291190D01*
X160424762Y-107195952D02*
X160329524Y-107148333D01*
X160281905Y-107100714D01*
X160234286Y-107005476D01*
X160234286Y-106957857D01*
X160281905Y-106862619D01*
X160329524Y-106815000D01*
X160424762Y-106767381D01*
X160615239Y-106767381D01*
X160710477Y-106815000D01*
X160758096Y-106862619D01*
X160805715Y-106957857D01*
X160805715Y-107005476D01*
X160758096Y-107100714D01*
X160710477Y-107148333D01*
X160615239Y-107195952D01*
X160424762Y-107195952D01*
X160329524Y-107243571D01*
X160281905Y-107291190D01*
X160234286Y-107386429D01*
X160234286Y-107576905D01*
X160281905Y-107672143D01*
X160329524Y-107719762D01*
X160424762Y-107767381D01*
X160615239Y-107767381D01*
X160710477Y-107719762D01*
X160758096Y-107672143D01*
X160805715Y-107576905D01*
X160805715Y-107386429D01*
X160758096Y-107291190D01*
X160710477Y-107243571D01*
X160615239Y-107195952D01*
X157313334Y-142438381D02*
X156980000Y-141962190D01*
X156741905Y-142438381D02*
X156741905Y-141438381D01*
X157122858Y-141438381D01*
X157218096Y-141486000D01*
X157265715Y-141533619D01*
X157313334Y-141628857D01*
X157313334Y-141771714D01*
X157265715Y-141866952D01*
X157218096Y-141914571D01*
X157122858Y-141962190D01*
X156741905Y-141962190D01*
X157789524Y-142438381D02*
X157980000Y-142438381D01*
X158075239Y-142390762D01*
X158122858Y-142343143D01*
X158218096Y-142200286D01*
X158265715Y-142009810D01*
X158265715Y-141628857D01*
X158218096Y-141533619D01*
X158170477Y-141486000D01*
X158075239Y-141438381D01*
X157884762Y-141438381D01*
X157789524Y-141486000D01*
X157741905Y-141533619D01*
X157694286Y-141628857D01*
X157694286Y-141866952D01*
X157741905Y-141962190D01*
X157789524Y-142009810D01*
X157884762Y-142057429D01*
X158075239Y-142057429D01*
X158170477Y-142009810D01*
X158218096Y-141962190D01*
X158265715Y-141866952D01*
X128897143Y-142438381D02*
X128563809Y-141962190D01*
X128325714Y-142438381D02*
X128325714Y-141438381D01*
X128706667Y-141438381D01*
X128801905Y-141486000D01*
X128849524Y-141533619D01*
X128897143Y-141628857D01*
X128897143Y-141771714D01*
X128849524Y-141866952D01*
X128801905Y-141914571D01*
X128706667Y-141962190D01*
X128325714Y-141962190D01*
X129849524Y-142438381D02*
X129278095Y-142438381D01*
X129563809Y-142438381D02*
X129563809Y-141438381D01*
X129468571Y-141581238D01*
X129373333Y-141676476D01*
X129278095Y-141724095D01*
X130468571Y-141438381D02*
X130563810Y-141438381D01*
X130659048Y-141486000D01*
X130706667Y-141533619D01*
X130754286Y-141628857D01*
X130801905Y-141819333D01*
X130801905Y-142057429D01*
X130754286Y-142247905D01*
X130706667Y-142343143D01*
X130659048Y-142390762D01*
X130563810Y-142438381D01*
X130468571Y-142438381D01*
X130373333Y-142390762D01*
X130325714Y-142343143D01*
X130278095Y-142247905D01*
X130230476Y-142057429D01*
X130230476Y-141819333D01*
X130278095Y-141628857D01*
X130325714Y-141533619D01*
X130373333Y-141486000D01*
X130468571Y-141438381D01*
X137612381Y-70588095D02*
X136612381Y-70588095D01*
X136612381Y-70207142D01*
X136660000Y-70111904D01*
X136707619Y-70064285D01*
X136802857Y-70016666D01*
X136945714Y-70016666D01*
X137040952Y-70064285D01*
X137088571Y-70111904D01*
X137136190Y-70207142D01*
X137136190Y-70588095D01*
X137612381Y-69064285D02*
X137612381Y-69635714D01*
X137612381Y-69350000D02*
X136612381Y-69350000D01*
X136755238Y-69445238D01*
X136850476Y-69540476D01*
X136898095Y-69635714D01*
X150312381Y-70588095D02*
X149312381Y-70588095D01*
X149312381Y-70207142D01*
X149360000Y-70111904D01*
X149407619Y-70064285D01*
X149502857Y-70016666D01*
X149645714Y-70016666D01*
X149740952Y-70064285D01*
X149788571Y-70111904D01*
X149836190Y-70207142D01*
X149836190Y-70588095D01*
X149407619Y-69635714D02*
X149360000Y-69588095D01*
X149312381Y-69492857D01*
X149312381Y-69254761D01*
X149360000Y-69159523D01*
X149407619Y-69111904D01*
X149502857Y-69064285D01*
X149598095Y-69064285D01*
X149740952Y-69111904D01*
X150312381Y-69683333D01*
X150312381Y-69064285D01*
X142176667Y-131849762D02*
X142319524Y-131897381D01*
X142557620Y-131897381D01*
X142652858Y-131849762D01*
X142700477Y-131802143D01*
X142748096Y-131706905D01*
X142748096Y-131611667D01*
X142700477Y-131516429D01*
X142652858Y-131468810D01*
X142557620Y-131421190D01*
X142367143Y-131373571D01*
X142271905Y-131325952D01*
X142224286Y-131278333D01*
X142176667Y-131183095D01*
X142176667Y-131087857D01*
X142224286Y-130992619D01*
X142271905Y-130945000D01*
X142367143Y-130897381D01*
X142605239Y-130897381D01*
X142748096Y-130945000D01*
X143081429Y-130897381D02*
X143319524Y-131897381D01*
X143510001Y-131183095D01*
X143700477Y-131897381D01*
X143938572Y-130897381D01*
X144271905Y-130992619D02*
X144319524Y-130945000D01*
X144414762Y-130897381D01*
X144652858Y-130897381D01*
X144748096Y-130945000D01*
X144795715Y-130992619D01*
X144843334Y-131087857D01*
X144843334Y-131183095D01*
X144795715Y-131325952D01*
X144224286Y-131897381D01*
X144843334Y-131897381D01*
X136294762Y-80073333D02*
X136342381Y-79930476D01*
X136342381Y-79692380D01*
X136294762Y-79597142D01*
X136247143Y-79549523D01*
X136151905Y-79501904D01*
X136056667Y-79501904D01*
X135961429Y-79549523D01*
X135913810Y-79597142D01*
X135866190Y-79692380D01*
X135818571Y-79882857D01*
X135770952Y-79978095D01*
X135723333Y-80025714D01*
X135628095Y-80073333D01*
X135532857Y-80073333D01*
X135437619Y-80025714D01*
X135390000Y-79978095D01*
X135342381Y-79882857D01*
X135342381Y-79644761D01*
X135390000Y-79501904D01*
X135342381Y-79168571D02*
X136342381Y-78930476D01*
X135628095Y-78739999D01*
X136342381Y-78549523D01*
X135342381Y-78311428D01*
X136342381Y-77406666D02*
X136342381Y-77978095D01*
X136342381Y-77692381D02*
X135342381Y-77692381D01*
X135485238Y-77787619D01*
X135580476Y-77882857D01*
X135628095Y-77978095D01*
X131913334Y-112117143D02*
X131865715Y-112164762D01*
X131722858Y-112212381D01*
X131627620Y-112212381D01*
X131484762Y-112164762D01*
X131389524Y-112069524D01*
X131341905Y-111974286D01*
X131294286Y-111783810D01*
X131294286Y-111640952D01*
X131341905Y-111450476D01*
X131389524Y-111355238D01*
X131484762Y-111260000D01*
X131627620Y-111212381D01*
X131722858Y-111212381D01*
X131865715Y-111260000D01*
X131913334Y-111307619D01*
X132865715Y-112212381D02*
X132294286Y-112212381D01*
X132580000Y-112212381D02*
X132580000Y-111212381D01*
X132484762Y-111355238D01*
X132389524Y-111450476D01*
X132294286Y-111498095D01*
X128627143Y-122086666D02*
X128674762Y-122134285D01*
X128722381Y-122277142D01*
X128722381Y-122372380D01*
X128674762Y-122515238D01*
X128579524Y-122610476D01*
X128484286Y-122658095D01*
X128293810Y-122705714D01*
X128150952Y-122705714D01*
X127960476Y-122658095D01*
X127865238Y-122610476D01*
X127770000Y-122515238D01*
X127722381Y-122372380D01*
X127722381Y-122277142D01*
X127770000Y-122134285D01*
X127817619Y-122086666D01*
X127817619Y-121705714D02*
X127770000Y-121658095D01*
X127722381Y-121562857D01*
X127722381Y-121324761D01*
X127770000Y-121229523D01*
X127817619Y-121181904D01*
X127912857Y-121134285D01*
X128008095Y-121134285D01*
X128150952Y-121181904D01*
X128722381Y-121753333D01*
X128722381Y-121134285D01*
X148423334Y-112117143D02*
X148375715Y-112164762D01*
X148232858Y-112212381D01*
X148137620Y-112212381D01*
X147994762Y-112164762D01*
X147899524Y-112069524D01*
X147851905Y-111974286D01*
X147804286Y-111783810D01*
X147804286Y-111640952D01*
X147851905Y-111450476D01*
X147899524Y-111355238D01*
X147994762Y-111260000D01*
X148137620Y-111212381D01*
X148232858Y-111212381D01*
X148375715Y-111260000D01*
X148423334Y-111307619D01*
X148756667Y-111212381D02*
X149375715Y-111212381D01*
X149042381Y-111593333D01*
X149185239Y-111593333D01*
X149280477Y-111640952D01*
X149328096Y-111688571D01*
X149375715Y-111783810D01*
X149375715Y-112021905D01*
X149328096Y-112117143D01*
X149280477Y-112164762D01*
X149185239Y-112212381D01*
X148899524Y-112212381D01*
X148804286Y-112164762D01*
X148756667Y-112117143D01*
X154773334Y-114657143D02*
X154725715Y-114704762D01*
X154582858Y-114752381D01*
X154487620Y-114752381D01*
X154344762Y-114704762D01*
X154249524Y-114609524D01*
X154201905Y-114514286D01*
X154154286Y-114323810D01*
X154154286Y-114180952D01*
X154201905Y-113990476D01*
X154249524Y-113895238D01*
X154344762Y-113800000D01*
X154487620Y-113752381D01*
X154582858Y-113752381D01*
X154725715Y-113800000D01*
X154773334Y-113847619D01*
X155630477Y-114085714D02*
X155630477Y-114752381D01*
X155392381Y-113704762D02*
X155154286Y-114419048D01*
X155773334Y-114419048D01*
X121181905Y-122372381D02*
X121181905Y-121372381D01*
X121420000Y-121372381D01*
X121562858Y-121420000D01*
X121658096Y-121515238D01*
X121705715Y-121610476D01*
X121753334Y-121800952D01*
X121753334Y-121943810D01*
X121705715Y-122134286D01*
X121658096Y-122229524D01*
X121562858Y-122324762D01*
X121420000Y-122372381D01*
X121181905Y-122372381D01*
X122705715Y-122372381D02*
X122134286Y-122372381D01*
X122420000Y-122372381D02*
X122420000Y-121372381D01*
X122324762Y-121515238D01*
X122229524Y-121610476D01*
X122134286Y-121658095D01*
X159281905Y-103957381D02*
X159281905Y-102957381D01*
X159520000Y-102957381D01*
X159662858Y-103005000D01*
X159758096Y-103100238D01*
X159805715Y-103195476D01*
X159853334Y-103385952D01*
X159853334Y-103528810D01*
X159805715Y-103719286D01*
X159758096Y-103814524D01*
X159662858Y-103909762D01*
X159520000Y-103957381D01*
X159281905Y-103957381D01*
X160234286Y-103052619D02*
X160281905Y-103005000D01*
X160377143Y-102957381D01*
X160615239Y-102957381D01*
X160710477Y-103005000D01*
X160758096Y-103052619D01*
X160805715Y-103147857D01*
X160805715Y-103243095D01*
X160758096Y-103385952D01*
X160186667Y-103957381D01*
X160805715Y-103957381D01*
X134453334Y-112212381D02*
X134120000Y-111736190D01*
X133881905Y-112212381D02*
X133881905Y-111212381D01*
X134262858Y-111212381D01*
X134358096Y-111260000D01*
X134405715Y-111307619D01*
X134453334Y-111402857D01*
X134453334Y-111545714D01*
X134405715Y-111640952D01*
X134358096Y-111688571D01*
X134262858Y-111736190D01*
X133881905Y-111736190D01*
X134834286Y-111307619D02*
X134881905Y-111260000D01*
X134977143Y-111212381D01*
X135215239Y-111212381D01*
X135310477Y-111260000D01*
X135358096Y-111307619D01*
X135405715Y-111402857D01*
X135405715Y-111498095D01*
X135358096Y-111640952D01*
X134786667Y-112212381D01*
X135405715Y-112212381D01*
X126833334Y-107132381D02*
X126500000Y-106656190D01*
X126261905Y-107132381D02*
X126261905Y-106132381D01*
X126642858Y-106132381D01*
X126738096Y-106180000D01*
X126785715Y-106227619D01*
X126833334Y-106322857D01*
X126833334Y-106465714D01*
X126785715Y-106560952D01*
X126738096Y-106608571D01*
X126642858Y-106656190D01*
X126261905Y-106656190D01*
X127166667Y-106132381D02*
X127785715Y-106132381D01*
X127452381Y-106513333D01*
X127595239Y-106513333D01*
X127690477Y-106560952D01*
X127738096Y-106608571D01*
X127785715Y-106703810D01*
X127785715Y-106941905D01*
X127738096Y-107037143D01*
X127690477Y-107084762D01*
X127595239Y-107132381D01*
X127309524Y-107132381D01*
X127214286Y-107084762D01*
X127166667Y-107037143D01*
X139533334Y-112212381D02*
X139200000Y-111736190D01*
X138961905Y-112212381D02*
X138961905Y-111212381D01*
X139342858Y-111212381D01*
X139438096Y-111260000D01*
X139485715Y-111307619D01*
X139533334Y-111402857D01*
X139533334Y-111545714D01*
X139485715Y-111640952D01*
X139438096Y-111688571D01*
X139342858Y-111736190D01*
X138961905Y-111736190D01*
X140390477Y-111545714D02*
X140390477Y-112212381D01*
X140152381Y-111164762D02*
X139914286Y-111879048D01*
X140533334Y-111879048D01*
X121753334Y-107132381D02*
X121420000Y-106656190D01*
X121181905Y-107132381D02*
X121181905Y-106132381D01*
X121562858Y-106132381D01*
X121658096Y-106180000D01*
X121705715Y-106227619D01*
X121753334Y-106322857D01*
X121753334Y-106465714D01*
X121705715Y-106560952D01*
X121658096Y-106608571D01*
X121562858Y-106656190D01*
X121181905Y-106656190D01*
X122658096Y-106132381D02*
X122181905Y-106132381D01*
X122134286Y-106608571D01*
X122181905Y-106560952D01*
X122277143Y-106513333D01*
X122515239Y-106513333D01*
X122610477Y-106560952D01*
X122658096Y-106608571D01*
X122705715Y-106703810D01*
X122705715Y-106941905D01*
X122658096Y-107037143D01*
X122610477Y-107084762D01*
X122515239Y-107132381D01*
X122277143Y-107132381D01*
X122181905Y-107084762D01*
X122134286Y-107037143D01*
X154773334Y-100147381D02*
X154440000Y-99671190D01*
X154201905Y-100147381D02*
X154201905Y-99147381D01*
X154582858Y-99147381D01*
X154678096Y-99195000D01*
X154725715Y-99242619D01*
X154773334Y-99337857D01*
X154773334Y-99480714D01*
X154725715Y-99575952D01*
X154678096Y-99623571D01*
X154582858Y-99671190D01*
X154201905Y-99671190D01*
X155630477Y-99147381D02*
X155440000Y-99147381D01*
X155344762Y-99195000D01*
X155297143Y-99242619D01*
X155201905Y-99385476D01*
X155154286Y-99575952D01*
X155154286Y-99956905D01*
X155201905Y-100052143D01*
X155249524Y-100099762D01*
X155344762Y-100147381D01*
X155535239Y-100147381D01*
X155630477Y-100099762D01*
X155678096Y-100052143D01*
X155725715Y-99956905D01*
X155725715Y-99718810D01*
X155678096Y-99623571D01*
X155630477Y-99575952D01*
X155535239Y-99528333D01*
X155344762Y-99528333D01*
X155249524Y-99575952D01*
X155201905Y-99623571D01*
X155154286Y-99718810D01*
X154138334Y-88717381D02*
X153805000Y-88241190D01*
X153566905Y-88717381D02*
X153566905Y-87717381D01*
X153947858Y-87717381D01*
X154043096Y-87765000D01*
X154090715Y-87812619D01*
X154138334Y-87907857D01*
X154138334Y-88050714D01*
X154090715Y-88145952D01*
X154043096Y-88193571D01*
X153947858Y-88241190D01*
X153566905Y-88241190D01*
X154471667Y-87717381D02*
X155138334Y-87717381D01*
X154709762Y-88717381D01*
M02*
