G04 #@! TF.FileFunction,Soldermask,Top*
%FSLAX46Y46*%
G04 Gerber Fmt 4.6, Leading zero omitted, Abs format (unit mm)*
G04 Created by KiCad (PCBNEW 4.0.4-stable) date 09/05/16 00:54:51*
%MOMM*%
%LPD*%
G01*
G04 APERTURE LIST*
%ADD10C,0.100000*%
%ADD11C,0.150000*%
%ADD12R,5.400000X3.400000*%
%ADD13C,3.600000*%
%ADD14C,2.400000*%
%ADD15C,2.398980*%
%ADD16C,2.899360*%
%ADD17C,3.140000*%
%ADD18C,2.640000*%
%ADD19R,3.200000X3.800000*%
%ADD20R,3.800000X3.200000*%
%ADD21R,2.200000X2.200000*%
%ADD22C,2.200000*%
%ADD23C,2.099260*%
%ADD24R,2.099260X2.099260*%
%ADD25C,2.940000*%
G04 APERTURE END LIST*
D10*
D11*
X124700000Y-65660000D02*
X124700000Y-65910000D01*
X162700000Y-65660000D02*
X124700000Y-65660000D01*
X162700000Y-65910000D02*
X162700000Y-65660000D01*
X162700000Y-142660000D02*
X162700000Y-142410000D01*
X124700000Y-142660000D02*
X162700000Y-142660000D01*
X124700000Y-142410000D02*
X124700000Y-142660000D01*
X117950000Y-72660000D02*
X117950000Y-135660000D01*
X169450000Y-135660000D02*
X169450000Y-72660000D01*
X169450000Y-135660000D02*
G75*
G03X162700000Y-142410000I0J-6750000D01*
G01*
X124700000Y-142410000D02*
G75*
G03X117950000Y-135660000I-6750000J0D01*
G01*
X117950000Y-72660000D02*
G75*
G03X124700000Y-65910000I0J6750000D01*
G01*
X162700000Y-65910000D02*
G75*
G03X169450000Y-72660000I6750000J0D01*
G01*
D12*
X137760000Y-127000000D03*
X149260000Y-127000000D03*
D13*
X164450000Y-79160000D03*
X122950000Y-79160000D03*
X122950000Y-129160000D03*
D14*
X125730000Y-114300000D03*
X125730000Y-124460000D03*
D15*
X160020000Y-109220000D03*
X160020000Y-119380000D03*
D16*
X157439360Y-134660640D03*
X159938720Y-139700000D03*
X154940000Y-139700000D03*
X129499360Y-134660640D03*
X131998720Y-139700000D03*
X127000000Y-139700000D03*
D17*
X129540000Y-67310000D03*
X129540000Y-72390000D03*
X134620000Y-72390000D03*
X134620000Y-67310000D03*
D18*
X132080000Y-69850000D03*
D13*
X164450000Y-129160000D03*
D17*
X152400000Y-67310000D03*
X152400000Y-72390000D03*
X157480000Y-72390000D03*
X157480000Y-67310000D03*
D18*
X154940000Y-69850000D03*
D19*
X148210000Y-138430000D03*
X143510000Y-138430000D03*
X138810000Y-138430000D03*
D20*
X140970000Y-74040000D03*
X140970000Y-78740000D03*
X140970000Y-83440000D03*
X146050000Y-74040000D03*
X146050000Y-78740000D03*
X146050000Y-83440000D03*
D21*
X134620000Y-114300000D03*
D22*
X129540000Y-114300000D03*
D21*
X130810000Y-119380000D03*
D22*
X130810000Y-124460000D03*
D21*
X144780000Y-109220000D03*
D22*
X152400000Y-109220000D03*
D21*
X154940000Y-116840000D03*
D22*
X154940000Y-121920000D03*
D23*
X121917460Y-109219480D03*
D24*
X121917460Y-119379480D03*
D23*
X165100520Y-101597460D03*
D24*
X154940520Y-101597460D03*
D25*
X134620000Y-88900000D03*
X134620000Y-109220000D03*
X127000000Y-104140000D03*
X127000000Y-83820000D03*
X139700000Y-88900000D03*
X139700000Y-109220000D03*
X121920000Y-104140000D03*
X121920000Y-83820000D03*
X165100000Y-96520000D03*
X144780000Y-96520000D03*
X165100000Y-91440000D03*
X144780000Y-91440000D03*
M02*
