G04 #@! TF.FileFunction,Copper,L2,Bot,Signal*
%FSLAX46Y46*%
G04 Gerber Fmt 4.6, Leading zero omitted, Abs format (unit mm)*
G04 Created by KiCad (PCBNEW 4.0.4-stable) date 09/05/16 00:54:51*
%MOMM*%
%LPD*%
G01*
G04 APERTURE LIST*
%ADD10C,0.100000*%
%ADD11C,0.300000*%
%ADD12C,0.250000*%
%ADD13C,0.150000*%
%ADD14C,0.400000*%
%ADD15R,5.000000X3.000000*%
%ADD16C,2.000000*%
%ADD17C,1.998980*%
%ADD18C,2.499360*%
%ADD19C,2.740000*%
%ADD20C,2.240000*%
%ADD21R,2.800000X3.400000*%
%ADD22R,3.400000X2.800000*%
%ADD23R,1.800000X1.800000*%
%ADD24C,1.800000*%
%ADD25C,1.699260*%
%ADD26R,1.699260X1.699260*%
%ADD27C,2.540000*%
%ADD28C,1.500000*%
%ADD29C,2.500000*%
%ADD30C,3.000000*%
%ADD31C,2.000000*%
%ADD32C,1.000000*%
%ADD33C,0.750000*%
%ADD34C,1.250000*%
G04 APERTURE END LIST*
D10*
D11*
X166828571Y-125236428D02*
X166900000Y-125379285D01*
X167042857Y-125522142D01*
X167257143Y-125736428D01*
X167328571Y-125879285D01*
X167328571Y-126022142D01*
X166971429Y-125950714D02*
X167042857Y-126093571D01*
X167185714Y-126236428D01*
X167471429Y-126307857D01*
X167971429Y-126307857D01*
X168257143Y-126236428D01*
X168400000Y-126093571D01*
X168471429Y-125950714D01*
X168471429Y-125665000D01*
X168400000Y-125522142D01*
X168257143Y-125379285D01*
X167971429Y-125307857D01*
X167471429Y-125307857D01*
X167185714Y-125379285D01*
X167042857Y-125522142D01*
X166971429Y-125665000D01*
X166971429Y-125950714D01*
X166971429Y-123807856D02*
X167685714Y-124307856D01*
X166971429Y-124664999D02*
X168471429Y-124664999D01*
X168471429Y-124093571D01*
X168400000Y-123950713D01*
X168328571Y-123879285D01*
X168185714Y-123807856D01*
X167971429Y-123807856D01*
X167828571Y-123879285D01*
X167757143Y-123950713D01*
X167685714Y-124093571D01*
X167685714Y-124664999D01*
X166971429Y-123164999D02*
X168471429Y-123164999D01*
X168471429Y-122593571D01*
X168400000Y-122450713D01*
X168328571Y-122379285D01*
X168185714Y-122307856D01*
X167971429Y-122307856D01*
X167828571Y-122379285D01*
X167757143Y-122450713D01*
X167685714Y-122593571D01*
X167685714Y-123164999D01*
X167757143Y-120022142D02*
X167685714Y-119807856D01*
X167614286Y-119736428D01*
X167471429Y-119664999D01*
X167257143Y-119664999D01*
X167114286Y-119736428D01*
X167042857Y-119807856D01*
X166971429Y-119950714D01*
X166971429Y-120522142D01*
X168471429Y-120522142D01*
X168471429Y-120022142D01*
X168400000Y-119879285D01*
X168328571Y-119807856D01*
X168185714Y-119736428D01*
X168042857Y-119736428D01*
X167900000Y-119807856D01*
X167828571Y-119879285D01*
X167757143Y-120022142D01*
X167757143Y-120522142D01*
X166971429Y-119022142D02*
X167971429Y-119022142D01*
X167685714Y-119022142D02*
X167828571Y-118950714D01*
X167900000Y-118879285D01*
X167971429Y-118736428D01*
X167971429Y-118593571D01*
X166971429Y-118093571D02*
X167971429Y-118093571D01*
X168471429Y-118093571D02*
X168400000Y-118165000D01*
X168328571Y-118093571D01*
X168400000Y-118022143D01*
X168471429Y-118093571D01*
X168328571Y-118093571D01*
X166971429Y-116736428D02*
X168471429Y-116736428D01*
X167042857Y-116736428D02*
X166971429Y-116879285D01*
X166971429Y-117164999D01*
X167042857Y-117307857D01*
X167114286Y-117379285D01*
X167257143Y-117450714D01*
X167685714Y-117450714D01*
X167828571Y-117379285D01*
X167900000Y-117307857D01*
X167971429Y-117164999D01*
X167971429Y-116879285D01*
X167900000Y-116736428D01*
X167971429Y-115379285D02*
X166757143Y-115379285D01*
X166614286Y-115450714D01*
X166542857Y-115522142D01*
X166471429Y-115664999D01*
X166471429Y-115879285D01*
X166542857Y-116022142D01*
X167042857Y-115379285D02*
X166971429Y-115522142D01*
X166971429Y-115807856D01*
X167042857Y-115950714D01*
X167114286Y-116022142D01*
X167257143Y-116093571D01*
X167685714Y-116093571D01*
X167828571Y-116022142D01*
X167900000Y-115950714D01*
X167971429Y-115807856D01*
X167971429Y-115522142D01*
X167900000Y-115379285D01*
X167042857Y-114093571D02*
X166971429Y-114236428D01*
X166971429Y-114522142D01*
X167042857Y-114664999D01*
X167185714Y-114736428D01*
X167757143Y-114736428D01*
X167900000Y-114664999D01*
X167971429Y-114522142D01*
X167971429Y-114236428D01*
X167900000Y-114093571D01*
X167757143Y-114022142D01*
X167614286Y-114022142D01*
X167471429Y-114736428D01*
X167042857Y-112307857D02*
X166971429Y-112093571D01*
X166971429Y-111736428D01*
X167042857Y-111593571D01*
X167114286Y-111522142D01*
X167257143Y-111450714D01*
X167400000Y-111450714D01*
X167542857Y-111522142D01*
X167614286Y-111593571D01*
X167685714Y-111736428D01*
X167757143Y-112022142D01*
X167828571Y-112165000D01*
X167900000Y-112236428D01*
X168042857Y-112307857D01*
X168185714Y-112307857D01*
X168328571Y-112236428D01*
X168400000Y-112165000D01*
X168471429Y-112022142D01*
X168471429Y-111665000D01*
X168400000Y-111450714D01*
X168471429Y-110950714D02*
X166971429Y-110593571D01*
X168042857Y-110307857D01*
X166971429Y-110022143D01*
X168471429Y-109665000D01*
X166971429Y-108236428D02*
X167685714Y-108736428D01*
X166971429Y-109093571D02*
X168471429Y-109093571D01*
X168471429Y-108522143D01*
X168400000Y-108379285D01*
X168328571Y-108307857D01*
X168185714Y-108236428D01*
X167971429Y-108236428D01*
X167828571Y-108307857D01*
X167757143Y-108379285D01*
X167685714Y-108522143D01*
X167685714Y-109093571D01*
X166971429Y-106450714D02*
X168471429Y-106450714D01*
X167400000Y-105950714D01*
X168471429Y-105450714D01*
X166971429Y-105450714D01*
X167042857Y-104165000D02*
X166971429Y-104307857D01*
X166971429Y-104593571D01*
X167042857Y-104736428D01*
X167185714Y-104807857D01*
X167757143Y-104807857D01*
X167900000Y-104736428D01*
X167971429Y-104593571D01*
X167971429Y-104307857D01*
X167900000Y-104165000D01*
X167757143Y-104093571D01*
X167614286Y-104093571D01*
X167471429Y-104807857D01*
X167971429Y-103665000D02*
X167971429Y-103093571D01*
X168471429Y-103450714D02*
X167185714Y-103450714D01*
X167042857Y-103379286D01*
X166971429Y-103236428D01*
X166971429Y-103093571D01*
X167042857Y-102022143D02*
X166971429Y-102165000D01*
X166971429Y-102450714D01*
X167042857Y-102593571D01*
X167185714Y-102665000D01*
X167757143Y-102665000D01*
X167900000Y-102593571D01*
X167971429Y-102450714D01*
X167971429Y-102165000D01*
X167900000Y-102022143D01*
X167757143Y-101950714D01*
X167614286Y-101950714D01*
X167471429Y-102665000D01*
X166971429Y-101307857D02*
X167971429Y-101307857D01*
X167685714Y-101307857D02*
X167828571Y-101236429D01*
X167900000Y-101165000D01*
X167971429Y-101022143D01*
X167971429Y-100879286D01*
X165421429Y-116414999D02*
X164421429Y-116414999D01*
X165992857Y-116772142D02*
X164921429Y-117129285D01*
X164921429Y-116200713D01*
X165921429Y-115772142D02*
X164421429Y-114772142D01*
X165921429Y-114772142D02*
X164421429Y-115772142D01*
X165921429Y-113486428D02*
X165921429Y-114200714D01*
X165207143Y-114272143D01*
X165278571Y-114200714D01*
X165350000Y-114057857D01*
X165350000Y-113700714D01*
X165278571Y-113557857D01*
X165207143Y-113486428D01*
X165064286Y-113415000D01*
X164707143Y-113415000D01*
X164564286Y-113486428D01*
X164492857Y-113557857D01*
X164421429Y-113700714D01*
X164421429Y-114057857D01*
X164492857Y-114200714D01*
X164564286Y-114272143D01*
X164421429Y-112772143D02*
X165921429Y-112772143D01*
X165921429Y-112415000D01*
X165850000Y-112200715D01*
X165707143Y-112057857D01*
X165564286Y-111986429D01*
X165278571Y-111915000D01*
X165064286Y-111915000D01*
X164778571Y-111986429D01*
X164635714Y-112057857D01*
X164492857Y-112200715D01*
X164421429Y-112415000D01*
X164421429Y-112772143D01*
X164421429Y-111272143D02*
X165921429Y-111272143D01*
X164850000Y-110772143D01*
X165921429Y-110272143D01*
X164421429Y-110272143D01*
X161871429Y-124843571D02*
X163371429Y-124843571D01*
X163371429Y-124486428D01*
X163300000Y-124272143D01*
X163157143Y-124129285D01*
X163014286Y-124057857D01*
X162728571Y-123986428D01*
X162514286Y-123986428D01*
X162228571Y-124057857D01*
X162085714Y-124129285D01*
X161942857Y-124272143D01*
X161871429Y-124486428D01*
X161871429Y-124843571D01*
X161871429Y-123343571D02*
X162871429Y-123343571D01*
X162728571Y-123343571D02*
X162800000Y-123272143D01*
X162871429Y-123129285D01*
X162871429Y-122915000D01*
X162800000Y-122772143D01*
X162657143Y-122700714D01*
X161871429Y-122700714D01*
X162657143Y-122700714D02*
X162800000Y-122629285D01*
X162871429Y-122486428D01*
X162871429Y-122272143D01*
X162800000Y-122129285D01*
X162657143Y-122057857D01*
X161871429Y-122057857D01*
X161871429Y-121343571D02*
X162871429Y-121343571D01*
X163371429Y-121343571D02*
X163300000Y-121415000D01*
X163228571Y-121343571D01*
X163300000Y-121272143D01*
X163371429Y-121343571D01*
X163228571Y-121343571D01*
X162871429Y-120843571D02*
X162871429Y-120272142D01*
X163371429Y-120629285D02*
X162085714Y-120629285D01*
X161942857Y-120557857D01*
X161871429Y-120414999D01*
X161871429Y-120272142D01*
X161871429Y-119772142D02*
X162871429Y-119772142D01*
X162585714Y-119772142D02*
X162728571Y-119700714D01*
X162800000Y-119629285D01*
X162871429Y-119486428D01*
X162871429Y-119343571D01*
X162871429Y-118986428D02*
X161871429Y-118629285D01*
X162871429Y-118272143D02*
X161871429Y-118629285D01*
X161514286Y-118772143D01*
X161442857Y-118843571D01*
X161371429Y-118986428D01*
X161871429Y-116557857D02*
X163371429Y-116557857D01*
X162300000Y-116057857D01*
X163371429Y-115557857D01*
X161871429Y-115557857D01*
X161942857Y-114272143D02*
X161871429Y-114415000D01*
X161871429Y-114700714D01*
X161942857Y-114843571D01*
X162085714Y-114915000D01*
X162657143Y-114915000D01*
X162800000Y-114843571D01*
X162871429Y-114700714D01*
X162871429Y-114415000D01*
X162800000Y-114272143D01*
X162657143Y-114200714D01*
X162514286Y-114200714D01*
X162371429Y-114915000D01*
X161871429Y-113343571D02*
X161942857Y-113486429D01*
X162085714Y-113557857D01*
X163371429Y-113557857D01*
X162871429Y-112772143D02*
X161871429Y-112772143D01*
X162728571Y-112772143D02*
X162800000Y-112700715D01*
X162871429Y-112557857D01*
X162871429Y-112343572D01*
X162800000Y-112200715D01*
X162657143Y-112129286D01*
X161871429Y-112129286D01*
X161871429Y-111415000D02*
X162871429Y-111415000D01*
X163371429Y-111415000D02*
X163300000Y-111486429D01*
X163228571Y-111415000D01*
X163300000Y-111343572D01*
X163371429Y-111415000D01*
X163228571Y-111415000D01*
X161942857Y-110057857D02*
X161871429Y-110200714D01*
X161871429Y-110486428D01*
X161942857Y-110629286D01*
X162014286Y-110700714D01*
X162157143Y-110772143D01*
X162585714Y-110772143D01*
X162728571Y-110700714D01*
X162800000Y-110629286D01*
X162871429Y-110486428D01*
X162871429Y-110200714D01*
X162800000Y-110057857D01*
X161871429Y-109415000D02*
X163371429Y-109415000D01*
X161871429Y-108772143D02*
X162657143Y-108772143D01*
X162800000Y-108843572D01*
X162871429Y-108986429D01*
X162871429Y-109200714D01*
X162800000Y-109343572D01*
X162728571Y-109415000D01*
X161871429Y-107415000D02*
X162657143Y-107415000D01*
X162800000Y-107486429D01*
X162871429Y-107629286D01*
X162871429Y-107915000D01*
X162800000Y-108057857D01*
X161942857Y-107415000D02*
X161871429Y-107557857D01*
X161871429Y-107915000D01*
X161942857Y-108057857D01*
X162085714Y-108129286D01*
X162228571Y-108129286D01*
X162371429Y-108057857D01*
X162442857Y-107915000D01*
X162442857Y-107557857D01*
X162514286Y-107415000D01*
X162871429Y-106700714D02*
X161871429Y-106700714D01*
X162728571Y-106700714D02*
X162800000Y-106629286D01*
X162871429Y-106486428D01*
X162871429Y-106272143D01*
X162800000Y-106129286D01*
X162657143Y-106057857D01*
X161871429Y-106057857D01*
X161942857Y-105415000D02*
X161871429Y-105272143D01*
X161871429Y-104986428D01*
X161942857Y-104843571D01*
X162085714Y-104772143D01*
X162157143Y-104772143D01*
X162300000Y-104843571D01*
X162371429Y-104986428D01*
X162371429Y-105200714D01*
X162442857Y-105343571D01*
X162585714Y-105415000D01*
X162657143Y-105415000D01*
X162800000Y-105343571D01*
X162871429Y-105200714D01*
X162871429Y-104986428D01*
X162800000Y-104843571D01*
X161871429Y-104129285D02*
X163371429Y-104129285D01*
X162442857Y-103986428D02*
X161871429Y-103557857D01*
X162871429Y-103557857D02*
X162300000Y-104129285D01*
X162871429Y-103057856D02*
X161871429Y-102700713D01*
X162871429Y-102343571D02*
X161871429Y-102700713D01*
X161514286Y-102843571D01*
X161442857Y-102914999D01*
X161371429Y-103057856D01*
D12*
X164001963Y-134048571D02*
X164412678Y-133334286D01*
X164859106Y-134048571D02*
X164671606Y-132548571D01*
X164100178Y-132548571D01*
X163966249Y-132620000D01*
X163903750Y-132691429D01*
X163850178Y-132834286D01*
X163876963Y-133048571D01*
X163966250Y-133191429D01*
X164046606Y-133262857D01*
X164198393Y-133334286D01*
X164769821Y-133334286D01*
X162778750Y-133977143D02*
X162930535Y-134048571D01*
X163216249Y-134048571D01*
X163350178Y-133977143D01*
X163403750Y-133834286D01*
X163332321Y-133262857D01*
X163243035Y-133120000D01*
X163091249Y-133048571D01*
X162805535Y-133048571D01*
X162671607Y-133120000D01*
X162618035Y-133262857D01*
X162635892Y-133405714D01*
X163368035Y-133548571D01*
X162162678Y-133048571D02*
X161591249Y-133048571D01*
X162073392Y-134048571D02*
X161912678Y-132762857D01*
X161823393Y-132620000D01*
X161671606Y-132548571D01*
X161528749Y-132548571D01*
X161001963Y-134048571D02*
X161135893Y-133977143D01*
X161189464Y-133834286D01*
X161028749Y-132548571D01*
X160412678Y-133905714D02*
X160350179Y-133977143D01*
X160430535Y-134048571D01*
X160493036Y-133977143D01*
X160412678Y-133905714D01*
X160430535Y-134048571D01*
X163716250Y-136548571D02*
X163618036Y-135762857D01*
X163671608Y-135620000D01*
X163805536Y-135548571D01*
X164091250Y-135548571D01*
X164243036Y-135620000D01*
X163707322Y-136477143D02*
X163859107Y-136548571D01*
X164216250Y-136548571D01*
X164350179Y-136477143D01*
X164403751Y-136334286D01*
X164385894Y-136191429D01*
X164296607Y-136048571D01*
X164144822Y-135977143D01*
X163787679Y-135977143D01*
X163635893Y-135905714D01*
X162359107Y-136548571D02*
X162171607Y-135048571D01*
X162350179Y-136477143D02*
X162501964Y-136548571D01*
X162787678Y-136548571D01*
X162921608Y-136477143D01*
X162984107Y-136405714D01*
X163037679Y-136262857D01*
X162984108Y-135834286D01*
X162894822Y-135691429D01*
X162814465Y-135620000D01*
X162662678Y-135548571D01*
X162376964Y-135548571D01*
X162243036Y-135620000D01*
X161519821Y-135548571D02*
X161680536Y-136834286D01*
X161769822Y-136977143D01*
X161921607Y-137048571D01*
X161993035Y-137048571D01*
X161457321Y-135048571D02*
X161537679Y-135120000D01*
X161475179Y-135191429D01*
X161394822Y-135120000D01*
X161457321Y-135048571D01*
X161475179Y-135191429D01*
X160912678Y-136405714D02*
X160850179Y-136477143D01*
X160930535Y-136548571D01*
X160993036Y-136477143D01*
X160912678Y-136405714D01*
X160930535Y-136548571D01*
X126053750Y-133262857D02*
X126553750Y-133262857D01*
X126651964Y-134048571D02*
X126464464Y-132548571D01*
X125750178Y-132548571D01*
X125384107Y-133048571D02*
X125223393Y-134048571D01*
X124848394Y-133334286D01*
X124651964Y-134048571D01*
X124241250Y-133048571D01*
X123151964Y-134048571D02*
X122964464Y-132548571D01*
X123143036Y-133977143D02*
X123294821Y-134048571D01*
X123580535Y-134048571D01*
X123714465Y-133977143D01*
X123776964Y-133905714D01*
X123830536Y-133762857D01*
X123776965Y-133334286D01*
X123687679Y-133191429D01*
X123607322Y-133120000D01*
X123455535Y-133048571D01*
X123169821Y-133048571D01*
X123035893Y-133120000D01*
X122419821Y-133905714D02*
X122357322Y-133977143D01*
X122437678Y-134048571D01*
X122500179Y-133977143D01*
X122419821Y-133905714D01*
X122437678Y-134048571D01*
X125616250Y-136548571D02*
X125518036Y-135762857D01*
X125571608Y-135620000D01*
X125705536Y-135548571D01*
X125991250Y-135548571D01*
X126143036Y-135620000D01*
X125607322Y-136477143D02*
X125759107Y-136548571D01*
X126116250Y-136548571D01*
X126250179Y-136477143D01*
X126303751Y-136334286D01*
X126285894Y-136191429D01*
X126196607Y-136048571D01*
X126044822Y-135977143D01*
X125687679Y-135977143D01*
X125535893Y-135905714D01*
X124259107Y-136548571D02*
X124071607Y-135048571D01*
X124250179Y-136477143D02*
X124401964Y-136548571D01*
X124687678Y-136548571D01*
X124821608Y-136477143D01*
X124884107Y-136405714D01*
X124937679Y-136262857D01*
X124884108Y-135834286D01*
X124794822Y-135691429D01*
X124714465Y-135620000D01*
X124562678Y-135548571D01*
X124276964Y-135548571D01*
X124143036Y-135620000D01*
X123419821Y-135548571D02*
X123580536Y-136834286D01*
X123669822Y-136977143D01*
X123821607Y-137048571D01*
X123893035Y-137048571D01*
X123357321Y-135048571D02*
X123437679Y-135120000D01*
X123375179Y-135191429D01*
X123294822Y-135120000D01*
X123357321Y-135048571D01*
X123375179Y-135191429D01*
X122812678Y-136405714D02*
X122750179Y-136477143D01*
X122830535Y-136548571D01*
X122893036Y-136477143D01*
X122812678Y-136405714D01*
X122830535Y-136548571D01*
D13*
X124700000Y-65660000D02*
X124700000Y-65910000D01*
X162700000Y-65660000D02*
X124700000Y-65660000D01*
X162700000Y-65910000D02*
X162700000Y-65660000D01*
X162700000Y-142660000D02*
X162700000Y-142410000D01*
X124700000Y-142660000D02*
X162700000Y-142660000D01*
X124700000Y-142410000D02*
X124700000Y-142660000D01*
X117950000Y-72660000D02*
X117950000Y-135660000D01*
X169450000Y-135660000D02*
X169450000Y-72660000D01*
X169450000Y-135660000D02*
G75*
G03X162700000Y-142410000I0J-6750000D01*
G01*
X124700000Y-142410000D02*
G75*
G03X117950000Y-135660000I-6750000J0D01*
G01*
X117950000Y-72660000D02*
G75*
G03X124700000Y-65910000I0J6750000D01*
G01*
X162700000Y-65910000D02*
G75*
G03X169450000Y-72660000I6750000J0D01*
G01*
D11*
X140667619Y-123371429D02*
X138732381Y-123371429D01*
X148287619Y-123371429D02*
X146352381Y-123371429D01*
X147320000Y-124339048D02*
X147320000Y-122403810D01*
X141555239Y-134073810D02*
X141993334Y-133311905D01*
X142469525Y-134073810D02*
X142269525Y-132473810D01*
X141660001Y-132473810D01*
X141517144Y-132550000D01*
X141450477Y-132626190D01*
X141393334Y-132778571D01*
X141421906Y-133007143D01*
X141517143Y-133159524D01*
X141602858Y-133235714D01*
X141764763Y-133311905D01*
X142374287Y-133311905D01*
X140250477Y-133997619D02*
X140412382Y-134073810D01*
X140717144Y-134073810D01*
X140860001Y-133997619D01*
X140917144Y-133845238D01*
X140840953Y-133235714D01*
X140745716Y-133083333D01*
X140583811Y-133007143D01*
X140279049Y-133007143D01*
X140136192Y-133083333D01*
X140079048Y-133235714D01*
X140098096Y-133388095D01*
X140879048Y-133540476D01*
X139593334Y-133007143D02*
X138983810Y-133007143D01*
X139498096Y-134073810D02*
X139326668Y-132702381D01*
X139231429Y-132550000D01*
X139069524Y-132473810D01*
X138917143Y-132473810D01*
X138355238Y-134073810D02*
X138498095Y-133997619D01*
X138555239Y-133845238D01*
X138383810Y-132473810D01*
X137126667Y-133997619D02*
X137288572Y-134073810D01*
X137593334Y-134073810D01*
X137736191Y-133997619D01*
X137793334Y-133845238D01*
X137717143Y-133235714D01*
X137621906Y-133083333D01*
X137460001Y-133007143D01*
X137155239Y-133007143D01*
X137012382Y-133083333D01*
X136955238Y-133235714D01*
X136974286Y-133388095D01*
X137755238Y-133540476D01*
X135679047Y-133997619D02*
X135840952Y-134073810D01*
X136145714Y-134073810D01*
X136288571Y-133997619D01*
X136355239Y-133921429D01*
X136412381Y-133769048D01*
X136355238Y-133311905D01*
X136260000Y-133159524D01*
X136174286Y-133083333D01*
X136012381Y-133007143D01*
X135707619Y-133007143D01*
X135564762Y-133083333D01*
X135098095Y-133007143D02*
X134488571Y-133007143D01*
X134802857Y-132473810D02*
X134974286Y-133845238D01*
X134917142Y-133997619D01*
X134774285Y-134073810D01*
X134621904Y-134073810D01*
X133469523Y-133997619D02*
X133631428Y-134073810D01*
X133936190Y-134073810D01*
X134079047Y-133997619D01*
X134136190Y-133845238D01*
X134059999Y-133235714D01*
X133964762Y-133083333D01*
X133802857Y-133007143D01*
X133498095Y-133007143D01*
X133355238Y-133083333D01*
X133298094Y-133235714D01*
X133317142Y-133388095D01*
X134098094Y-133540476D01*
X132031427Y-134073810D02*
X131831427Y-132473810D01*
X132021903Y-133997619D02*
X132183808Y-134073810D01*
X132488570Y-134073810D01*
X132631427Y-133997619D01*
X132698095Y-133921429D01*
X132755237Y-133769048D01*
X132698094Y-133311905D01*
X132602856Y-133159524D01*
X132517142Y-133083333D01*
X132355237Y-133007143D01*
X132050475Y-133007143D01*
X131907618Y-133083333D01*
X153617142Y-133235714D02*
X154150476Y-133235714D01*
X154255238Y-134073810D02*
X154055238Y-132473810D01*
X153293333Y-132473810D01*
X152655237Y-134073810D02*
X152798094Y-133997619D01*
X152864762Y-133921429D01*
X152921904Y-133769048D01*
X152864761Y-133311905D01*
X152769523Y-133159524D01*
X152683809Y-133083333D01*
X152521904Y-133007143D01*
X152293333Y-133007143D01*
X152150476Y-133083333D01*
X152083808Y-133159524D01*
X152026666Y-133311905D01*
X152083809Y-133769048D01*
X152179047Y-133921429D01*
X152264761Y-133997619D01*
X152426666Y-134073810D01*
X152655237Y-134073810D01*
X151436190Y-134073810D02*
X151302857Y-133007143D01*
X151340952Y-133311905D02*
X151245713Y-133159524D01*
X151160000Y-133083333D01*
X150998095Y-133007143D01*
X150845714Y-133007143D01*
X150464762Y-133007143D02*
X150293333Y-134073810D01*
X149893333Y-133311905D01*
X149683809Y-134073810D01*
X149245714Y-133007143D01*
X148083809Y-134073810D02*
X147979047Y-133235714D01*
X148036191Y-133083333D01*
X148179048Y-133007143D01*
X148483810Y-133007143D01*
X148645715Y-133083333D01*
X148074285Y-133997619D02*
X148236190Y-134073810D01*
X148617143Y-134073810D01*
X148760000Y-133997619D01*
X148817143Y-133845238D01*
X148798095Y-133692857D01*
X148702857Y-133540476D01*
X148540953Y-133464286D01*
X148160000Y-133464286D01*
X147998095Y-133388095D01*
X147321905Y-134073810D02*
X147188572Y-133007143D01*
X147226667Y-133311905D02*
X147131428Y-133159524D01*
X147045715Y-133083333D01*
X146883810Y-133007143D01*
X146731429Y-133007143D01*
X145645714Y-134073810D02*
X145445714Y-132473810D01*
X145636190Y-133997619D02*
X145798095Y-134073810D01*
X146102857Y-134073810D01*
X146245714Y-133997619D01*
X146312382Y-133921429D01*
X146369524Y-133769048D01*
X146312381Y-133311905D01*
X146217143Y-133159524D01*
X146131429Y-133083333D01*
X145969524Y-133007143D01*
X145664762Y-133007143D01*
X145521905Y-133083333D01*
D14*
X145652857Y-120221429D02*
X145652857Y-122221429D01*
X144224286Y-121269048D02*
X144081429Y-121459524D01*
X143795714Y-121554762D01*
X145652857Y-121269048D02*
X145510000Y-121459524D01*
X145224286Y-121554762D01*
X144652857Y-121554762D01*
X144367143Y-121459524D01*
X144224286Y-121269048D01*
X144224286Y-120221429D01*
X142652857Y-120983333D02*
X141224286Y-120983333D01*
X142938572Y-121554762D02*
X141938572Y-119554762D01*
X140938572Y-121554762D01*
X126825238Y-71738810D02*
X126825238Y-70595953D01*
X124825238Y-71167381D02*
X126825238Y-71167381D01*
X124825238Y-68786428D02*
X125777619Y-69453095D01*
X124825238Y-69929286D02*
X126825238Y-69929286D01*
X126825238Y-69167381D01*
X126730000Y-68976905D01*
X126634762Y-68881666D01*
X126444286Y-68786428D01*
X126158571Y-68786428D01*
X125968095Y-68881666D01*
X125872857Y-68976905D01*
X125777619Y-69167381D01*
X125777619Y-69929286D01*
X126825238Y-68119762D02*
X124825238Y-66786428D01*
X126825238Y-66786428D02*
X124825238Y-68119762D01*
X161623333Y-66929285D02*
X161623333Y-67881666D01*
X162194762Y-66738809D02*
X160194762Y-67405476D01*
X162194762Y-68072143D01*
X162194762Y-68738809D02*
X160194762Y-68738809D01*
X162194762Y-69881667D01*
X160194762Y-69881667D01*
X160194762Y-70548333D02*
X160194762Y-71691190D01*
X162194762Y-71119762D02*
X160194762Y-71119762D01*
D12*
X118814524Y-126690001D02*
X120064524Y-126690001D01*
X118814524Y-126154287D02*
X119469286Y-126154287D01*
X119588333Y-126213810D01*
X119647857Y-126332858D01*
X119647857Y-126511430D01*
X119588333Y-126630477D01*
X119528810Y-126690001D01*
X119647857Y-125737620D02*
X119647857Y-125261430D01*
X120064524Y-125559049D02*
X118993095Y-125559049D01*
X118874048Y-125499525D01*
X118814524Y-125380478D01*
X118814524Y-125261430D01*
X119647857Y-125023334D02*
X119647857Y-124547144D01*
X120064524Y-124844763D02*
X118993095Y-124844763D01*
X118874048Y-124785239D01*
X118814524Y-124666192D01*
X118814524Y-124547144D01*
X119647857Y-124130477D02*
X118397857Y-124130477D01*
X119588333Y-124130477D02*
X119647857Y-124011429D01*
X119647857Y-123773334D01*
X119588333Y-123654286D01*
X119528810Y-123594763D01*
X119409762Y-123535239D01*
X119052619Y-123535239D01*
X118933571Y-123594763D01*
X118874048Y-123654286D01*
X118814524Y-123773334D01*
X118814524Y-124011429D01*
X118874048Y-124130477D01*
X118933571Y-122999525D02*
X118874048Y-122940001D01*
X118814524Y-122999525D01*
X118874048Y-123059049D01*
X118933571Y-122999525D01*
X118814524Y-122999525D01*
X119588333Y-122999525D02*
X119528810Y-122940001D01*
X119469286Y-122999525D01*
X119528810Y-123059049D01*
X119588333Y-122999525D01*
X119469286Y-122999525D01*
X120124048Y-121511430D02*
X118516905Y-122582858D01*
X120124048Y-120201906D02*
X118516905Y-121273334D01*
X119647857Y-119249525D02*
X118635952Y-119249525D01*
X118516905Y-119309048D01*
X118457381Y-119368572D01*
X118397857Y-119487620D01*
X118397857Y-119666191D01*
X118457381Y-119785239D01*
X118874048Y-119249525D02*
X118814524Y-119368572D01*
X118814524Y-119606668D01*
X118874048Y-119725715D01*
X118933571Y-119785239D01*
X119052619Y-119844763D01*
X119409762Y-119844763D01*
X119528810Y-119785239D01*
X119588333Y-119725715D01*
X119647857Y-119606668D01*
X119647857Y-119368572D01*
X119588333Y-119249525D01*
X118814524Y-118654287D02*
X119647857Y-118654287D01*
X120064524Y-118654287D02*
X120005000Y-118713811D01*
X119945476Y-118654287D01*
X120005000Y-118594763D01*
X120064524Y-118654287D01*
X119945476Y-118654287D01*
X119647857Y-118237620D02*
X119647857Y-117761430D01*
X120064524Y-118059049D02*
X118993095Y-118059049D01*
X118874048Y-117999525D01*
X118814524Y-117880478D01*
X118814524Y-117761430D01*
X118814524Y-117344763D02*
X120064524Y-117344763D01*
X118814524Y-116809049D02*
X119469286Y-116809049D01*
X119588333Y-116868572D01*
X119647857Y-116987620D01*
X119647857Y-117166192D01*
X119588333Y-117285239D01*
X119528810Y-117344763D01*
X119647857Y-115678097D02*
X118814524Y-115678097D01*
X119647857Y-116213811D02*
X118993095Y-116213811D01*
X118874048Y-116154287D01*
X118814524Y-116035240D01*
X118814524Y-115856668D01*
X118874048Y-115737620D01*
X118933571Y-115678097D01*
X118814524Y-115082859D02*
X120064524Y-115082859D01*
X119588333Y-115082859D02*
X119647857Y-114963811D01*
X119647857Y-114725716D01*
X119588333Y-114606668D01*
X119528810Y-114547145D01*
X119409762Y-114487621D01*
X119052619Y-114487621D01*
X118933571Y-114547145D01*
X118874048Y-114606668D01*
X118814524Y-114725716D01*
X118814524Y-114963811D01*
X118874048Y-115082859D01*
X118933571Y-113951907D02*
X118874048Y-113892383D01*
X118814524Y-113951907D01*
X118874048Y-114011431D01*
X118933571Y-113951907D01*
X118814524Y-113951907D01*
X118874048Y-112820955D02*
X118814524Y-112940002D01*
X118814524Y-113178098D01*
X118874048Y-113297145D01*
X118933571Y-113356669D01*
X119052619Y-113416193D01*
X119409762Y-113416193D01*
X119528810Y-113356669D01*
X119588333Y-113297145D01*
X119647857Y-113178098D01*
X119647857Y-112940002D01*
X119588333Y-112820955D01*
X118814524Y-112106669D02*
X118874048Y-112225716D01*
X118933571Y-112285240D01*
X119052619Y-112344764D01*
X119409762Y-112344764D01*
X119528810Y-112285240D01*
X119588333Y-112225716D01*
X119647857Y-112106669D01*
X119647857Y-111928097D01*
X119588333Y-111809049D01*
X119528810Y-111749526D01*
X119409762Y-111690002D01*
X119052619Y-111690002D01*
X118933571Y-111749526D01*
X118874048Y-111809049D01*
X118814524Y-111928097D01*
X118814524Y-112106669D01*
X118814524Y-111154288D02*
X119647857Y-111154288D01*
X119528810Y-111154288D02*
X119588333Y-111094764D01*
X119647857Y-110975717D01*
X119647857Y-110797145D01*
X119588333Y-110678097D01*
X119469286Y-110618574D01*
X118814524Y-110618574D01*
X119469286Y-110618574D02*
X119588333Y-110559050D01*
X119647857Y-110440002D01*
X119647857Y-110261431D01*
X119588333Y-110142383D01*
X119469286Y-110082859D01*
X118814524Y-110082859D01*
X120124048Y-108594764D02*
X118516905Y-109666192D01*
X119647857Y-107642383D02*
X118814524Y-107642383D01*
X120124048Y-107940002D02*
X119231190Y-108237621D01*
X119231190Y-107463811D01*
X118814524Y-107106669D02*
X119647857Y-106451907D01*
X119647857Y-107106669D02*
X118814524Y-106451907D01*
X120064524Y-105380478D02*
X120064524Y-105975716D01*
X119469286Y-106035240D01*
X119528810Y-105975716D01*
X119588333Y-105856668D01*
X119588333Y-105559049D01*
X119528810Y-105440002D01*
X119469286Y-105380478D01*
X119350238Y-105320954D01*
X119052619Y-105320954D01*
X118933571Y-105380478D01*
X118874048Y-105440002D01*
X118814524Y-105559049D01*
X118814524Y-105856668D01*
X118874048Y-105975716D01*
X118933571Y-106035240D01*
X118814524Y-104249526D02*
X120064524Y-104249526D01*
X118874048Y-104249526D02*
X118814524Y-104368573D01*
X118814524Y-104606669D01*
X118874048Y-104725716D01*
X118933571Y-104785240D01*
X119052619Y-104844764D01*
X119409762Y-104844764D01*
X119528810Y-104785240D01*
X119588333Y-104725716D01*
X119647857Y-104606669D01*
X119647857Y-104368573D01*
X119588333Y-104249526D01*
X118814524Y-103654288D02*
X119647857Y-103654288D01*
X119528810Y-103654288D02*
X119588333Y-103594764D01*
X119647857Y-103475717D01*
X119647857Y-103297145D01*
X119588333Y-103178097D01*
X119469286Y-103118574D01*
X118814524Y-103118574D01*
X119469286Y-103118574D02*
X119588333Y-103059050D01*
X119647857Y-102940002D01*
X119647857Y-102761431D01*
X119588333Y-102642383D01*
X119469286Y-102582859D01*
X118814524Y-102582859D01*
X120124048Y-101094764D02*
X118516905Y-102166192D01*
X119647857Y-100142383D02*
X118397857Y-100142383D01*
X118874048Y-100142383D02*
X118814524Y-100261430D01*
X118814524Y-100499526D01*
X118874048Y-100618573D01*
X118933571Y-100678097D01*
X119052619Y-100737621D01*
X119409762Y-100737621D01*
X119528810Y-100678097D01*
X119588333Y-100618573D01*
X119647857Y-100499526D01*
X119647857Y-100261430D01*
X119588333Y-100142383D01*
X118814524Y-99547145D02*
X119647857Y-99547145D01*
X119409762Y-99547145D02*
X119528810Y-99487621D01*
X119588333Y-99428097D01*
X119647857Y-99309050D01*
X119647857Y-99190002D01*
X119647857Y-98773335D02*
X118397857Y-98773335D01*
X119588333Y-98773335D02*
X119647857Y-98654287D01*
X119647857Y-98416192D01*
X119588333Y-98297144D01*
X119528810Y-98237621D01*
X119409762Y-98178097D01*
X119052619Y-98178097D01*
X118933571Y-98237621D01*
X118874048Y-98297144D01*
X118814524Y-98416192D01*
X118814524Y-98654287D01*
X118874048Y-98773335D01*
X118695476Y-97940002D02*
X118695476Y-96987621D01*
X118874048Y-96749526D02*
X118814524Y-96630478D01*
X118814524Y-96392383D01*
X118874048Y-96273335D01*
X118993095Y-96213811D01*
X119052619Y-96213811D01*
X119171667Y-96273335D01*
X119231190Y-96392383D01*
X119231190Y-96570954D01*
X119290714Y-96690002D01*
X119409762Y-96749526D01*
X119469286Y-96749526D01*
X119588333Y-96690002D01*
X119647857Y-96570954D01*
X119647857Y-96392383D01*
X119588333Y-96273335D01*
X119647857Y-95797145D02*
X118814524Y-95559049D01*
X119409762Y-95320954D01*
X118814524Y-95082859D01*
X119647857Y-94844764D01*
X118814524Y-94368573D02*
X119647857Y-94368573D01*
X119409762Y-94368573D02*
X119528810Y-94309049D01*
X119588333Y-94249525D01*
X119647857Y-94130478D01*
X119647857Y-94011430D01*
X118695476Y-93892382D02*
X118695476Y-92940001D01*
X118814524Y-92642382D02*
X119647857Y-92642382D01*
X119528810Y-92642382D02*
X119588333Y-92582858D01*
X119647857Y-92463811D01*
X119647857Y-92285239D01*
X119588333Y-92166191D01*
X119469286Y-92106668D01*
X118814524Y-92106668D01*
X119469286Y-92106668D02*
X119588333Y-92047144D01*
X119647857Y-91928096D01*
X119647857Y-91749525D01*
X119588333Y-91630477D01*
X119469286Y-91570953D01*
X118814524Y-91570953D01*
X118874048Y-90499524D02*
X118814524Y-90618572D01*
X118814524Y-90856667D01*
X118874048Y-90975715D01*
X118993095Y-91035239D01*
X119469286Y-91035239D01*
X119588333Y-90975715D01*
X119647857Y-90856667D01*
X119647857Y-90618572D01*
X119588333Y-90499524D01*
X119469286Y-90440001D01*
X119350238Y-90440001D01*
X119231190Y-91035239D01*
X119647857Y-90082857D02*
X119647857Y-89606667D01*
X120064524Y-89904286D02*
X118993095Y-89904286D01*
X118874048Y-89844762D01*
X118814524Y-89725715D01*
X118814524Y-89606667D01*
X118874048Y-88713809D02*
X118814524Y-88832857D01*
X118814524Y-89070952D01*
X118874048Y-89190000D01*
X118993095Y-89249524D01*
X119469286Y-89249524D01*
X119588333Y-89190000D01*
X119647857Y-89070952D01*
X119647857Y-88832857D01*
X119588333Y-88713809D01*
X119469286Y-88654286D01*
X119350238Y-88654286D01*
X119231190Y-89249524D01*
X118814524Y-88118571D02*
X119647857Y-88118571D01*
X119409762Y-88118571D02*
X119528810Y-88059047D01*
X119588333Y-87999523D01*
X119647857Y-87880476D01*
X119647857Y-87761428D01*
D15*
X137760000Y-127000000D03*
X149260000Y-127000000D03*
D16*
X125730000Y-114300000D03*
X125730000Y-124460000D03*
D17*
X160020000Y-109220000D03*
X160020000Y-119380000D03*
D18*
X157439360Y-134660640D03*
X159938720Y-139700000D03*
X154940000Y-139700000D03*
X129499360Y-134660640D03*
X131998720Y-139700000D03*
X127000000Y-139700000D03*
D19*
X129540000Y-67310000D03*
X129540000Y-72390000D03*
X134620000Y-72390000D03*
X134620000Y-67310000D03*
D20*
X132080000Y-69850000D03*
D19*
X152400000Y-67310000D03*
X152400000Y-72390000D03*
X157480000Y-72390000D03*
X157480000Y-67310000D03*
D20*
X154940000Y-69850000D03*
D21*
X148210000Y-138430000D03*
X143510000Y-138430000D03*
X138810000Y-138430000D03*
D22*
X140970000Y-74040000D03*
X140970000Y-78740000D03*
X140970000Y-83440000D03*
X146050000Y-74040000D03*
X146050000Y-78740000D03*
X146050000Y-83440000D03*
D23*
X134620000Y-114300000D03*
D24*
X129540000Y-114300000D03*
D23*
X130810000Y-119380000D03*
D24*
X130810000Y-124460000D03*
D23*
X144780000Y-109220000D03*
D24*
X152400000Y-109220000D03*
D23*
X154940000Y-116840000D03*
D24*
X154940000Y-121920000D03*
D25*
X121917460Y-109219480D03*
D26*
X121917460Y-119379480D03*
D25*
X165100520Y-101597460D03*
D26*
X154940520Y-101597460D03*
D27*
X134620000Y-88900000D03*
X134620000Y-109220000D03*
X127000000Y-104140000D03*
X127000000Y-83820000D03*
X139700000Y-88900000D03*
X139700000Y-109220000D03*
X121920000Y-104140000D03*
X121920000Y-83820000D03*
X165100000Y-96520000D03*
X144780000Y-96520000D03*
X165100000Y-91440000D03*
X144780000Y-91440000D03*
D28*
X158750000Y-71120000D02*
X157480000Y-72390000D01*
X158750000Y-68580000D02*
X158750000Y-71120000D01*
X157480000Y-67310000D02*
X158750000Y-68580000D01*
X151130000Y-68580000D02*
X152400000Y-67310000D01*
X151130000Y-71120000D02*
X151130000Y-68580000D01*
X152400000Y-72390000D02*
X151130000Y-71120000D01*
X128270000Y-68580000D02*
X129540000Y-67310000D01*
X128270000Y-71120000D02*
X128270000Y-68580000D01*
X129540000Y-72390000D02*
X128270000Y-71120000D01*
X135890000Y-68580000D02*
X134620000Y-67310000D01*
X135890000Y-71120000D02*
X135890000Y-68580000D01*
X134620000Y-72390000D02*
X135890000Y-71120000D01*
D29*
X127000000Y-74930000D02*
X129540000Y-72390000D01*
X127000000Y-83820000D02*
X127000000Y-74930000D01*
D30*
X134620000Y-67310000D02*
X152400000Y-67310000D01*
D28*
X130810000Y-119380000D02*
X133350000Y-119380000D01*
X134620000Y-118110000D02*
X134620000Y-116840000D01*
X133350000Y-119380000D02*
X134620000Y-118110000D01*
X134620000Y-116840000D02*
X137760000Y-116840000D01*
X134620000Y-114300000D02*
X134620000Y-116840000D01*
X148590000Y-116840000D02*
X154940000Y-116840000D01*
D31*
X127000000Y-83820000D02*
X127000000Y-92710000D01*
X148590000Y-116840000D02*
X137760000Y-116840000D01*
X137160000Y-102870000D02*
X146050000Y-102870000D01*
X146050000Y-102870000D02*
X148590000Y-105410000D01*
X148590000Y-105410000D02*
X148590000Y-109220000D01*
X148590000Y-109220000D02*
X148590000Y-116840000D01*
D28*
X137760000Y-116840000D02*
X137760000Y-127000000D01*
D31*
X127000000Y-92710000D02*
X137160000Y-102870000D01*
D29*
X121920000Y-83820000D02*
X127000000Y-83820000D01*
D32*
X125730000Y-114300000D02*
X129540000Y-114300000D01*
X121917460Y-119379480D02*
X124459480Y-119379480D01*
X125730000Y-118108960D02*
X125730000Y-114300000D01*
X124459480Y-119379480D02*
X125730000Y-118108960D01*
X130810000Y-124460000D02*
X128270000Y-124460000D01*
X129499360Y-134660640D02*
X129499360Y-129499360D01*
X128270000Y-128270000D02*
X128270000Y-124460000D01*
X129499360Y-129499360D02*
X128270000Y-128270000D01*
X125730000Y-124460000D02*
X128270000Y-124460000D01*
X130730000Y-124460000D02*
X130810000Y-124380000D01*
X144780000Y-109220000D02*
X139700000Y-109220000D01*
D31*
X139700000Y-109220000D02*
X134620000Y-109220000D01*
X134620000Y-109220000D02*
X129540000Y-104140000D01*
X129540000Y-104140000D02*
X127000000Y-104140000D01*
D32*
X121917460Y-109219480D02*
X121917460Y-104142540D01*
D33*
X121917460Y-104142540D02*
X121920000Y-104140000D01*
D31*
X121920000Y-104140000D02*
X127000000Y-104140000D01*
D32*
X157439360Y-134660640D02*
X157439360Y-121879360D01*
D33*
X157439360Y-121879360D02*
X157400000Y-121840000D01*
D32*
X154940000Y-121840000D02*
X157400000Y-121840000D01*
X157400000Y-121840000D02*
X159860000Y-119380000D01*
D33*
X159860000Y-119380000D02*
X160020000Y-119380000D01*
X157480000Y-134620000D02*
X157439360Y-134660640D01*
D32*
X157439360Y-134660640D02*
X157439360Y-137200640D01*
X157439360Y-137200640D02*
X159938720Y-139700000D01*
D34*
X132080000Y-76200000D02*
X132080000Y-69850000D01*
X134620000Y-78740000D02*
X132080000Y-76200000D01*
X140970000Y-78740000D02*
X134620000Y-78740000D01*
X154940000Y-76200000D02*
X154940000Y-69850000D01*
X152400000Y-78740000D02*
X154940000Y-76200000D01*
X146050000Y-78740000D02*
X152400000Y-78740000D01*
D31*
X140970000Y-74040000D02*
X146050000Y-74040000D01*
D32*
X144780000Y-127000000D02*
X149260000Y-127000000D01*
X143510000Y-128270000D02*
X144780000Y-127000000D01*
X143510000Y-138430000D02*
X143510000Y-128270000D01*
D31*
X140970000Y-85090000D02*
X140970000Y-83440000D01*
X139700000Y-86360000D02*
X140970000Y-85090000D01*
X139700000Y-88900000D02*
X139700000Y-86360000D01*
X139700000Y-88900000D02*
X142240000Y-88900000D01*
X142240000Y-88900000D02*
X144780000Y-91440000D01*
X144780000Y-96520000D02*
X144780000Y-91440000D01*
X134620000Y-88900000D02*
X139700000Y-88900000D01*
D32*
X154940520Y-101597460D02*
X154940520Y-109220000D01*
X152530000Y-109220000D02*
X154940520Y-109220000D01*
X154940520Y-109220000D02*
X160020000Y-109220000D01*
D31*
X157100000Y-83440000D02*
X165100000Y-91440000D01*
X146050000Y-83440000D02*
X157100000Y-83440000D01*
X165100000Y-96520000D02*
X165100000Y-91440000D01*
D33*
X165100520Y-96520520D02*
X165100000Y-96520000D01*
D32*
X165100520Y-101597460D02*
X165100520Y-96520520D01*
X148210000Y-138430000D02*
X153670000Y-138430000D01*
X153670000Y-138430000D02*
X154940000Y-139700000D01*
X127000000Y-139700000D02*
X129540000Y-137160000D01*
X135890000Y-138430000D02*
X138810000Y-138430000D01*
X134620000Y-137160000D02*
X135890000Y-138430000D01*
X129540000Y-137160000D02*
X134620000Y-137160000D01*
M02*
