M48
;DRILL file {KiCad 4.0.4-stable} date 09/05/16 00:54:47
;FORMAT={-:-/ absolute / inch / decimal}
FMAT,2
INCH,TZ
T1C0.028
T2C0.028
T3C0.031
T4C0.035
T5C0.039
T6C0.047
T7C0.047
T8C0.067
T9C0.126
%
G90
G05
M72
T1
X5.1Y-4.5
X5.15Y-4.7
X5.15Y-4.9
X5.3Y-4.5
X5.7Y-4.3
X6.Y-4.3
X6.1Y-4.6
X6.1Y-4.8
T2
X4.7999Y-4.3
X4.7999Y-4.7
X6.1Y-3.9999
X6.5Y-3.9999
T3
X4.95Y-4.5
X4.95Y-4.9
T5
X4.8Y-3.3
X4.8Y-4.1
X5.Y-3.3
X5.Y-4.1
X5.3Y-3.5
X5.3Y-4.3
X5.5Y-3.5
X5.5Y-4.3
X5.7Y-3.6
X5.7Y-3.8
X6.3Y-4.3
X6.3Y-4.7
X6.5Y-3.6
X6.5Y-3.8
T6
X5.Y-5.5
X5.0984Y-5.3016
X5.1968Y-5.5
X6.1Y-5.5
X6.1984Y-5.3016
X6.2968Y-5.5
T7
X5.2Y-2.75
X6.1Y-2.75
T8
X5.1Y-2.65
X5.1Y-2.85
X5.3Y-2.65
X5.3Y-2.85
X6.Y-2.65
X6.Y-2.85
X6.2Y-2.65
X6.2Y-2.85
T9
X4.8406Y-3.1165
X4.8406Y-5.085
X6.4744Y-3.1165
X6.4744Y-5.085
T3
X5.3705Y-5.G85X5.4768Y-5.
G05
X5.8232Y-5.G85X5.9295Y-5.
G05
T4
X5.465Y-5.4795G85X5.465Y-5.4205
G05
X5.5795Y-2.915G85X5.5205Y-2.915
G05
X5.5795Y-3.1G85X5.5205Y-3.1
G05
X5.5795Y-3.285G85X5.5205Y-3.285
G05
X5.65Y-5.4795G85X5.65Y-5.4205
G05
X5.7795Y-2.915G85X5.7205Y-2.915
G05
X5.7795Y-3.1G85X5.7205Y-3.1
G05
X5.7795Y-3.285G85X5.7205Y-3.285
G05
X5.835Y-5.4795G85X5.835Y-5.4205
G05
T0
M30
